<mxfile host="65bd71144e">
    <diagram id="of2-PWMNWNOVxdxlNGxx" name="Inicio-NoLogin">
        <mxGraphModel dx="1031" dy="796" grid="1" gridSize="10" guides="1" tooltips="1" connect="1" arrows="1" fold="1" page="1" pageScale="1.75" pageWidth="850" pageHeight="1100" math="0" shadow="0">
            <root>
                <mxCell id="0"/>
                <mxCell id="1" parent="0"/>
                <mxCell id="41" value="" style="verticalLabelPosition=bottom;verticalAlign=top;html=1;shadow=0;dashed=0;strokeWidth=1;shape=mxgraph.android.phone2;strokeColor=#006EAF;fillColor=#1ba1e2;fontColor=#ffffff;" parent="1" vertex="1">
                    <mxGeometry x="290" y="20" width="890" height="1800" as="geometry"/>
                </mxCell>
                <mxCell id="47" value="Inicio" style="dashed=0;align=center;fontSize=30;shape=rect;fillColor=#0050ef;strokeColor=#001DBC;shadow=0;hachureGap=4;pointerEvents=0;fontFamily=Helvetica;fontColor=#ffffff;" parent="1" vertex="1">
                    <mxGeometry x="320" y="180" width="840" height="110" as="geometry"/>
                </mxCell>
                <mxCell id="55" value="" style="ellipse;whiteSpace=wrap;html=1;movable=0;resizable=0;rotatable=0;deletable=0;editable=0;locked=1;connectable=0;" parent="1" vertex="1">
                    <mxGeometry x="340" y="310" width="100" height="100" as="geometry"/>
                </mxCell>
                <mxCell id="59" value="Defensa civil De republica Dominicana" style="text;html=1;align=center;verticalAlign=middle;whiteSpace=wrap;rounded=0;fontSize=34;movable=0;resizable=0;rotatable=0;deletable=0;editable=0;locked=1;connectable=0;" parent="1" vertex="1">
                    <mxGeometry x="480" y="330" width="520" height="60" as="geometry"/>
                </mxCell>
                <mxCell id="70" value="" style="group" parent="1" vertex="1" connectable="0">
                    <mxGeometry x="354" y="420" width="780" height="90" as="geometry"/>
                </mxCell>
                <mxCell id="53" value="" style="rounded=1;whiteSpace=wrap;html=1;movable=1;resizable=1;rotatable=1;deletable=1;editable=1;locked=0;connectable=1;" parent="70" vertex="1">
                    <mxGeometry width="780" height="90" as="geometry"/>
                </mxCell>
                <mxCell id="65" value="Iniciar Sesion" style="text;html=1;align=center;verticalAlign=middle;whiteSpace=wrap;rounded=0;fontSize=34;movable=1;resizable=1;rotatable=1;deletable=1;editable=1;locked=0;connectable=1;" parent="70" vertex="1">
                    <mxGeometry x="579.9974074074074" y="15" width="163.70370370370372" height="60" as="geometry"/>
                </mxCell>
                <mxCell id="71" value="&lt;font style=&quot;font-size: 35px;&quot;&gt;Historia&lt;/font&gt;" style="verticalLabelPosition=bottom;verticalAlign=top;html=1;shadow=0;dashed=0;strokeWidth=1;strokeColor=none;shape=rect;fillColor=#cc0000;" parent="1" vertex="1">
                    <mxGeometry x="350" y="1010" width="780" height="400" as="geometry"/>
                </mxCell>
                <mxCell id="d7HIyIbLNVoUM_CaPoho-77" value="First slide" style="html=1;shadow=0;dashed=0;strokeColor=none;strokeWidth=1;fillColor=#777777;fontColor=#555555;whiteSpace=wrap;align=center;verticalAlign=middle;fontStyle=0;fontSize=40;" parent="1" vertex="1">
                    <mxGeometry x="340" y="570" width="800" height="300" as="geometry"/>
                </mxCell>
                <mxCell id="d7HIyIbLNVoUM_CaPoho-78" value="" style="html=1;verticalLabelPosition=bottom;labelBackgroundColor=#ffffff;verticalAlign=top;shadow=0;dashed=0;strokeWidth=4;shape=mxgraph.ios7.misc.more;strokeColor=#a0a0a0;" parent="d7HIyIbLNVoUM_CaPoho-77" vertex="1">
                    <mxGeometry x="1" y="0.5" width="7" height="14" relative="1" as="geometry">
                        <mxPoint x="-50" y="-7" as="offset"/>
                    </mxGeometry>
                </mxCell>
                <mxCell id="d7HIyIbLNVoUM_CaPoho-79" value="" style="flipH=1;html=1;verticalLabelPosition=bottom;labelBackgroundColor=#ffffff;verticalAlign=top;shadow=0;dashed=0;strokeWidth=4;shape=mxgraph.ios7.misc.more;strokeColor=#a0a0a0;" parent="d7HIyIbLNVoUM_CaPoho-77" vertex="1">
                    <mxGeometry y="0.5" width="7" height="14" relative="1" as="geometry">
                        <mxPoint x="43" y="-7" as="offset"/>
                    </mxGeometry>
                </mxCell>
                <mxCell id="d7HIyIbLNVoUM_CaPoho-80" value="" style="html=1;shadow=0;strokeColor=none;fillColor=#ffffff;" parent="d7HIyIbLNVoUM_CaPoho-77" vertex="1">
                    <mxGeometry x="0.5" y="1" width="30" height="4" relative="1" as="geometry">
                        <mxPoint x="-50" y="-20" as="offset"/>
                    </mxGeometry>
                </mxCell>
                <mxCell id="d7HIyIbLNVoUM_CaPoho-81" value="" style="html=1;shadow=0;strokeColor=none;fillColor=#BBBBBB;" parent="d7HIyIbLNVoUM_CaPoho-77" vertex="1">
                    <mxGeometry x="0.5" y="1" width="30" height="4" relative="1" as="geometry">
                        <mxPoint x="-15" y="-20" as="offset"/>
                    </mxGeometry>
                </mxCell>
                <mxCell id="d7HIyIbLNVoUM_CaPoho-82" value="" style="html=1;shadow=0;strokeColor=none;fillColor=#BBBBBB;" parent="d7HIyIbLNVoUM_CaPoho-77" vertex="1">
                    <mxGeometry x="0.5" y="1" width="30" height="4" relative="1" as="geometry">
                        <mxPoint x="20" y="-20" as="offset"/>
                    </mxGeometry>
                </mxCell>
            </root>
        </mxGraphModel>
    </diagram>
    <diagram id="aY-9_dsh2P8sWOeY1TZ8" name="Inicio-SiLogin">
        <mxGraphModel grid="1" page="1" gridSize="10" guides="1" tooltips="1" connect="1" arrows="1" fold="1" pageScale="1" pageWidth="850" pageHeight="1100" math="0" shadow="0">
            <root>
                <mxCell id="0"/>
                <mxCell id="1" parent="0"/>
                <mxCell id="zdkf1JQN4-ZEeIkA-lEr-1" value="Inicio" style="dashed=0;align=center;fontSize=30;shape=rect;fillColor=#0050ef;strokeColor=#001DBC;shadow=0;hachureGap=4;pointerEvents=0;fontFamily=Helvetica;fontColor=#ffffff;" vertex="1" parent="1">
                    <mxGeometry x="410" y="250" width="835" height="110" as="geometry"/>
                </mxCell>
                <mxCell id="txmhkpyEIgwztu_Wlz39-1" value="" style="dashed=0;shape=rect;fillColor=#ffffff;strokeColor=none;" vertex="1" parent="1">
                    <mxGeometry x="400" y="350" width="860" height="1390" as="geometry"/>
                </mxCell>
                <mxCell id="o8PBCnGQ1-g8WfzuiCjo-1" value="" style="verticalLabelPosition=bottom;verticalAlign=top;html=1;shadow=0;dashed=0;strokeWidth=1;shape=mxgraph.android.phone2;strokeColor=#006EAF;fillColor=#1ba1e2;fontColor=#ffffff;" vertex="1" parent="1">
                    <mxGeometry x="375" y="90" width="900" height="1800" as="geometry"/>
                </mxCell>
                <mxCell id="H15vRqnnlD6RaVA4v7AD-1" value="" style="html=1;shadow=0;dashed=0;shape=mxgraph.bootstrap.rrect;rSize=5;fillColor=#E9ECEF;strokeColor=none;" vertex="1" parent="1">
                    <mxGeometry x="425" y="350" width="820" height="20" as="geometry"/>
                </mxCell>
                <mxCell id="H15vRqnnlD6RaVA4v7AD-2" value="" style="html=1;shadow=0;dashed=0;shape=mxgraph.bootstrap.leftButton;rSize=5;fillColor=#0085FC;strokeColor=none;resizeHeight=1;" vertex="1" parent="H15vRqnnlD6RaVA4v7AD-1">
                    <mxGeometry width="250" height="20" relative="1" as="geometry"/>
                </mxCell>
                <mxCell id="FxFuFwrNBRQXg3EIqBjz-2" value="&lt;font style=&quot;font-size: 30px;&quot;&gt;Ver Noticias&lt;/font&gt;" style="whiteSpace=wrap;html=1;dashed=0;align=center;fontSize=12;shape=rect;fillColor=#e0e0e0;strokeColor=none;fontStyle=1;shadow=1" vertex="1" parent="1">
                    <mxGeometry x="444" y="773" width="765" height="100" as="geometry"/>
                </mxCell>
                <mxCell id="FxFuFwrNBRQXg3EIqBjz-3" value="&lt;font style=&quot;font-size: 30px;&quot;&gt;Mis Situaciones&lt;/font&gt;" style="whiteSpace=wrap;html=1;dashed=0;align=center;fontSize=12;shape=rect;fillColor=#e0e0e0;strokeColor=none;fontStyle=1;shadow=1" vertex="1" parent="1">
                    <mxGeometry x="449" y="903" width="760" height="100" as="geometry"/>
                </mxCell>
                <mxCell id="9AbZaPrvKkzk6A1dBJJX-1" value="Bienvenido &amp;lt;Usuario&amp;gt;" style="text;html=1;align=center;verticalAlign=middle;whiteSpace=wrap;rounded=0;fontSize=34;movable=1;resizable=1;rotatable=1;deletable=1;editable=1;locked=0;connectable=1;" vertex="1" parent="1">
                    <mxGeometry x="425" y="410" width="365" height="60" as="geometry"/>
                </mxCell>
                <mxCell id="GNAVSvmgxaehgRdOrBVq-1" value="&lt;font style=&quot;font-size: 32px; color: light-dark(rgb(0, 0, 0), rgb(0, 127, 255));&quot;&gt;Link&lt;/font&gt;" style="html=1;shadow=0;dashed=0;shape=mxgraph.bootstrap.rrect;rSize=5;strokeColor=none;strokeWidth=1;fillColor=none;fontColor=#0085FC;whiteSpace=wrap;align=center;verticalAlign=middle;spacingLeft=0;fontStyle=0;fontSize=16;spacing=5;" vertex="1" parent="1">
                    <mxGeometry x="990" y="410" width="210" height="100" as="geometry"/>
                </mxCell>
            </root>
        </mxGraphModel>
    </diagram>
    <diagram id="YmS6a4tVSZTiEb-BK17p" name="Noticia-Vista">
        <mxGraphModel dx="2420" dy="1592" grid="1" gridSize="10" guides="1" tooltips="1" connect="1" arrows="1" fold="1" page="1" pageScale="1" pageWidth="850" pageHeight="1100" math="0" shadow="0">
            <root>
                <mxCell id="0"/>
                <mxCell id="1" parent="0"/>
                <mxCell id="By-wDBfk2yOOCm5fGiUq-1" value="Noticia" style="dashed=0;align=center;fontSize=30;shape=rect;fillColor=#0050ef;strokeColor=#001DBC;shadow=0;hachureGap=4;pointerEvents=0;fontFamily=Helvetica;fontColor=#ffffff;" vertex="1" parent="1">
                    <mxGeometry x="405" y="250" width="840" height="110" as="geometry"/>
                </mxCell>
                <mxCell id="ygv4wdh0PIMYdcKKcXya-1" value="" style="verticalLabelPosition=bottom;verticalAlign=top;html=1;shadow=0;dashed=0;strokeWidth=1;shape=mxgraph.android.phone2;strokeColor=#006EAF;fillColor=#1ba1e2;fontColor=#ffffff;" vertex="1" parent="1">
                    <mxGeometry x="375" y="90" width="900" height="1800" as="geometry"/>
                </mxCell>
                <mxCell id="2VdocW5RyoiNRil2M1Kp-1" value="" style="html=1;shadow=0;dashed=0;shape=mxgraph.bootstrap.rrect;rSize=5;fillColor=#E9ECEF;strokeColor=none;" vertex="1" parent="1">
                    <mxGeometry x="420" y="360" width="820" height="20" as="geometry"/>
                </mxCell>
                <mxCell id="2VdocW5RyoiNRil2M1Kp-2" value="" style="html=1;shadow=0;dashed=0;shape=mxgraph.bootstrap.leftButton;rSize=5;fillColor=#0085FC;strokeColor=none;resizeHeight=1;" vertex="1" parent="2VdocW5RyoiNRil2M1Kp-1">
                    <mxGeometry width="250" height="20" relative="1" as="geometry"/>
                </mxCell>
                <mxCell id="3YyUGAodImnE6IkXLu58-1" value="" style="dashed=0;shape=rect;fillColor=#ffffff;strokeColor=none;" vertex="1" parent="1">
                    <mxGeometry x="420" y="380" width="810" height="1340" as="geometry"/>
                </mxCell>
                <mxCell id="3YyUGAodImnE6IkXLu58-8" value="" style="shape=rect;fillColor=#ffffff;strokeColor=#eeeeee;shadow=0;resizeWidth=1;whiteSpace=wrap;html=1;" vertex="1" parent="3YyUGAodImnE6IkXLu58-1">
                    <mxGeometry width="810" height="103" relative="1" as="geometry">
                        <mxPoint y="81" as="offset"/>
                    </mxGeometry>
                </mxCell>
                <mxCell id="3YyUGAodImnE6IkXLu58-9" value="&lt;Titulo noticia&gt;" style="text;whiteSpace=wrap;fontColor=#000000;verticalAlign=top;align=left;fontSize=15;spacing=16;spacingBottom=0;spacingTop=-12;resizeWidth=1;" vertex="1" parent="3YyUGAodImnE6IkXLu58-8">
                    <mxGeometry width="552.0670391061453" height="60" relative="1" as="geometry"/>
                </mxCell>
                <mxCell id="3YyUGAodImnE6IkXLu58-11" value="&amp;lt;Fecha de noticia&amp;gt;" style="text;whiteSpace=wrap;spacingLeft=16;spacingRight=16;spacing=0;fontSize=12;fontColor=#999999;spacingBottom=0;spacingTop=-5;resizeWidth=1;html=1;" vertex="1" parent="3YyUGAodImnE6IkXLu58-8">
                    <mxGeometry width="552.0670391061453" height="20" relative="1" as="geometry">
                        <mxPoint y="72" as="offset"/>
                    </mxGeometry>
                </mxCell>
                <mxCell id="3YyUGAodImnE6IkXLu58-12" value="imagen" style="dashed=0;shape=mxgraph.gmdl.marginRect;rectMargin=12;rectMarginLeft=-12;fillColor=#BDBDBD;strokeColor=none;" vertex="1" parent="3YyUGAodImnE6IkXLu58-8">
                    <mxGeometry x="552.0670391061453" width="253.40782122905028" height="103" as="geometry"/>
                </mxCell>
                <mxCell id="3YyUGAodImnE6IkXLu58-13" value="" style="shape=rect;fillColor=#ffffff;strokeColor=#eeeeee;shadow=0;resizeWidth=1;whiteSpace=wrap;html=1;" vertex="1" parent="3YyUGAodImnE6IkXLu58-1">
                    <mxGeometry width="810" height="103" relative="1" as="geometry">
                        <mxPoint y="184" as="offset"/>
                    </mxGeometry>
                </mxCell>
                <mxCell id="3YyUGAodImnE6IkXLu58-14" value="&lt;Titulo noticia&gt;" style="text;whiteSpace=wrap;fontColor=#000000;verticalAlign=top;align=left;fontSize=15;spacing=16;spacingBottom=0;spacingTop=-12;resizeWidth=1;" vertex="1" parent="3YyUGAodImnE6IkXLu58-13">
                    <mxGeometry width="552.0670391061453" height="60" relative="1" as="geometry"/>
                </mxCell>
                <mxCell id="3YyUGAodImnE6IkXLu58-16" value="&lt;span style=&quot;color: rgb(106, 106, 106);&quot;&gt;&amp;lt;Fecha de noticia&amp;gt;&lt;/span&gt;" style="text;whiteSpace=wrap;spacingLeft=16;spacingRight=16;spacing=0;fontSize=12;fontColor=#999999;spacingBottom=0;spacingTop=-5;resizeWidth=1;html=1;" vertex="1" parent="3YyUGAodImnE6IkXLu58-13">
                    <mxGeometry width="552.0670391061453" height="20" relative="1" as="geometry">
                        <mxPoint y="72" as="offset"/>
                    </mxGeometry>
                </mxCell>
                <mxCell id="3YyUGAodImnE6IkXLu58-17" value="imagen" style="dashed=0;shape=mxgraph.gmdl.marginRect;rectMargin=12;rectMarginLeft=-12;fillColor=#BDBDBD;strokeColor=none;" vertex="1" parent="3YyUGAodImnE6IkXLu58-13">
                    <mxGeometry x="552.0670391061453" width="253.40782122905028" height="103" as="geometry"/>
                </mxCell>
                <mxCell id="3YyUGAodImnE6IkXLu58-18" value="" style="shape=rect;fillColor=#ffffff;strokeColor=#eeeeee;shadow=0;resizeWidth=1;whiteSpace=wrap;html=1;" vertex="1" parent="3YyUGAodImnE6IkXLu58-1">
                    <mxGeometry width="810" height="103" relative="1" as="geometry">
                        <mxPoint y="287" as="offset"/>
                    </mxGeometry>
                </mxCell>
                <mxCell id="3YyUGAodImnE6IkXLu58-19" value="&lt;Titulo noticia&gt;" style="text;whiteSpace=wrap;fontColor=#000000;verticalAlign=top;align=left;fontSize=15;spacing=16;spacingBottom=0;spacingTop=-12;resizeWidth=1;" vertex="1" parent="3YyUGAodImnE6IkXLu58-18">
                    <mxGeometry width="552.0670391061453" height="60" relative="1" as="geometry"/>
                </mxCell>
                <mxCell id="3YyUGAodImnE6IkXLu58-21" value="&lt;span style=&quot;color: rgb(146, 146, 146);&quot;&gt;&amp;lt;Fecha de noticia&amp;gt;&lt;/span&gt;" style="text;whiteSpace=wrap;spacingLeft=16;spacingRight=16;spacing=0;fontSize=12;fontColor=#999999;spacingBottom=0;spacingTop=-5;resizeWidth=1;html=1;" vertex="1" parent="3YyUGAodImnE6IkXLu58-18">
                    <mxGeometry width="552.0670391061453" height="20" relative="1" as="geometry">
                        <mxPoint y="72" as="offset"/>
                    </mxGeometry>
                </mxCell>
                <mxCell id="3YyUGAodImnE6IkXLu58-22" value="imagen" style="dashed=0;shape=mxgraph.gmdl.marginRect;rectMargin=12;rectMarginLeft=-12;fillColor=#BDBDBD;strokeColor=none;" vertex="1" parent="3YyUGAodImnE6IkXLu58-18">
                    <mxGeometry x="552.0670391061453" width="253.40782122905028" height="103" as="geometry"/>
                </mxCell>
                <mxCell id="3YyUGAodImnE6IkXLu58-23" value="" style="shape=rect;fillColor=#ffffff;strokeColor=#eeeeee;shadow=0;resizeWidth=1;whiteSpace=wrap;html=1;" vertex="1" parent="3YyUGAodImnE6IkXLu58-1">
                    <mxGeometry width="810" height="103" relative="1" as="geometry">
                        <mxPoint y="390" as="offset"/>
                    </mxGeometry>
                </mxCell>
                <mxCell id="3YyUGAodImnE6IkXLu58-24" value="&lt;Titulo noticia&gt;" style="text;whiteSpace=wrap;fontColor=#000000;verticalAlign=top;align=left;fontSize=15;spacing=16;spacingBottom=0;spacingTop=-12;resizeWidth=1;" vertex="1" parent="3YyUGAodImnE6IkXLu58-23">
                    <mxGeometry width="552.0670391061453" height="60" relative="1" as="geometry"/>
                </mxCell>
                <mxCell id="3YyUGAodImnE6IkXLu58-26" value="&lt;span style=&quot;color: rgb(146, 146, 146);&quot;&gt;&amp;lt;Fecha de noticia&amp;gt;&lt;/span&gt;" style="text;whiteSpace=wrap;spacingLeft=16;spacingRight=16;spacing=0;fontSize=12;fontColor=#999999;spacingBottom=0;spacingTop=-5;resizeWidth=1;html=1;" vertex="1" parent="3YyUGAodImnE6IkXLu58-23">
                    <mxGeometry width="552.0670391061453" height="20" relative="1" as="geometry">
                        <mxPoint y="72" as="offset"/>
                    </mxGeometry>
                </mxCell>
                <mxCell id="3YyUGAodImnE6IkXLu58-27" value="" style="dashed=0;shape=mxgraph.gmdl.marginRect;rectMargin=12;rectMarginLeft=-12;fillColor=#BDBDBD;strokeColor=none;" vertex="1" parent="3YyUGAodImnE6IkXLu58-23">
                    <mxGeometry x="552.0670391061453" width="253.40782122905028" height="103" as="geometry"/>
                </mxCell>
                <mxCell id="3YyUGAodImnE6IkXLu58-28" value="" style="shape=rect;fillColor=#ffffff;strokeColor=#eeeeee;shadow=0;resizeWidth=1;whiteSpace=wrap;html=1;" vertex="1" parent="3YyUGAodImnE6IkXLu58-1">
                    <mxGeometry width="810" height="101" relative="1" as="geometry">
                        <mxPoint y="493" as="offset"/>
                    </mxGeometry>
                </mxCell>
                <mxCell id="3YyUGAodImnE6IkXLu58-29" value="&lt;Titulo noticia&gt;" style="text;whiteSpace=wrap;fontColor=#000000;verticalAlign=top;align=left;fontSize=15;spacing=16;spacingBottom=0;spacingTop=-12;resizeWidth=1;" vertex="1" parent="3YyUGAodImnE6IkXLu58-28">
                    <mxGeometry width="552.0670391061453" height="60" relative="1" as="geometry"/>
                </mxCell>
                <mxCell id="3YyUGAodImnE6IkXLu58-31" value="&lt;span style=&quot;color: rgb(146, 146, 146);&quot;&gt;&amp;lt;Fecha de noticia&amp;gt;&lt;/span&gt;" style="text;whiteSpace=wrap;spacingLeft=16;spacingRight=16;spacing=0;fontSize=12;fontColor=#999999;spacingBottom=0;spacingTop=-5;resizeWidth=1;html=1;" vertex="1" parent="3YyUGAodImnE6IkXLu58-28">
                    <mxGeometry width="552.0670391061453" height="20" relative="1" as="geometry">
                        <mxPoint y="72" as="offset"/>
                    </mxGeometry>
                </mxCell>
                <mxCell id="3YyUGAodImnE6IkXLu58-32" value="" style="dashed=0;shape=mxgraph.gmdl.marginRect;rectMargin=12;rectMarginLeft=-12;fillColor=#BDBDBD;strokeColor=none;" vertex="1" parent="3YyUGAodImnE6IkXLu58-28">
                    <mxGeometry x="552.0670391061453" width="253.40782122905028" height="103" as="geometry"/>
                </mxCell>
            </root>
        </mxGraphModel>
    </diagram>
    <diagram id="gIMGGZBtqKnC1M8S_mEO" name="Noticia-Detalles">
        <mxGraphModel dx="2420" dy="1592" grid="1" gridSize="10" guides="1" tooltips="1" connect="1" arrows="1" fold="1" page="1" pageScale="1" pageWidth="850" pageHeight="1100" math="0" shadow="0">
            <root>
                <mxCell id="0"/>
                <mxCell id="1" parent="0"/>
                <mxCell id="OUo2DZ-azeSU3KHnJrSD-1" value="Noticia Detalle" style="dashed=0;align=center;fontSize=30;shape=rect;fillColor=#0050ef;strokeColor=#001DBC;shadow=0;hachureGap=4;pointerEvents=0;fontFamily=Helvetica;fontColor=#ffffff;" vertex="1" parent="1">
                    <mxGeometry x="405" y="250" width="840" height="110" as="geometry"/>
                </mxCell>
                <mxCell id="OUo2DZ-azeSU3KHnJrSD-2" value="" style="verticalLabelPosition=bottom;verticalAlign=top;html=1;shadow=0;dashed=0;strokeWidth=1;shape=mxgraph.android.phone2;strokeColor=#006EAF;fillColor=#1ba1e2;fontColor=#ffffff;" vertex="1" parent="1">
                    <mxGeometry x="375" y="90" width="900" height="1800" as="geometry"/>
                </mxCell>
                <mxCell id="OUo2DZ-azeSU3KHnJrSD-3" value="" style="shape=rect;fillColor=#BDBDBD;strokeColor=#BDBDBD;shadow=1;fontSize=14;" vertex="1" parent="1">
                    <mxGeometry x="420" y="400" width="810" height="830" as="geometry"/>
                </mxCell>
                <mxCell id="OUo2DZ-azeSU3KHnJrSD-4" value="" style="shape=rect;strokeColor=none;whiteSpace=wrap;html=1;align=left;spacingLeft=16;fontColor=#666666;fontSize=14;" vertex="1" parent="OUo2DZ-azeSU3KHnJrSD-3">
                    <mxGeometry y="562.0472440944882" width="810.0000000000001" height="267.9527559055118" as="geometry"/>
                </mxCell>
                <mxCell id="GZE-CnG0lQCwCNbUy-yO-1" value="&lt;span style=&quot;color: rgb(0, 0, 0); font-family: Helvetica; font-style: normal; font-variant-ligatures: normal; font-variant-caps: normal; font-weight: 400; letter-spacing: normal; orphans: 2; text-align: left; text-indent: 0px; text-transform: none; widows: 2; word-spacing: 0px; -webkit-text-stroke-width: 0px; white-space: normal; background-color: rgb(251, 251, 251); text-decoration-thickness: initial; text-decoration-style: initial; text-decoration-color: initial; float: none; display: inline !important;&quot;&gt;&amp;lt;Titulo noticia&amp;gt;&lt;/span&gt;" style="text;whiteSpace=wrap;html=1;fontSize=18;" vertex="1" parent="OUo2DZ-azeSU3KHnJrSD-3">
                    <mxGeometry x="10" y="570" width="130" height="40" as="geometry"/>
                </mxCell>
                <mxCell id="8YtG2M9-GBLUZNQq_T3i-1" value="&lt;span style=&quot;color: rgb(146, 146, 146); font-family: Helvetica; font-size: 12px; font-style: normal; font-variant-ligatures: normal; font-variant-caps: normal; font-weight: 400; letter-spacing: normal; orphans: 2; text-align: left; text-indent: 0px; text-transform: none; widows: 2; word-spacing: 0px; -webkit-text-stroke-width: 0px; white-space: normal; background-color: rgb(251, 251, 251); text-decoration-thickness: initial; text-decoration-style: initial; text-decoration-color: initial; display: inline !important; float: none;&quot;&gt;&amp;lt;Fecha de noticia&amp;gt;&lt;/span&gt;" style="text;whiteSpace=wrap;html=1;" vertex="1" parent="OUo2DZ-azeSU3KHnJrSD-3">
                    <mxGeometry x="10" y="600" width="110" height="20" as="geometry"/>
                </mxCell>
                <mxCell id="TUyTl_Sj5jZgVbUbTd6i-1" value="&lt;span style=&quot;font-size: 13px;&quot;&gt;&amp;lt;Contenido (Pechurina con papa)&amp;gt;&lt;br&gt;&lt;br&gt;&lt;/span&gt;&lt;div&gt;&lt;span style=&quot;font-size: 13px;&quot;&gt;&lt;br&gt;&lt;/span&gt;&lt;/div&gt;" style="text;whiteSpace=wrap;html=1;" vertex="1" parent="OUo2DZ-azeSU3KHnJrSD-3">
                    <mxGeometry x="10" y="670" width="780" height="150" as="geometry"/>
                </mxCell>
                <mxCell id="jcku4CcbI7h59ROrk2A_-1" value="" style="html=1;shadow=0;dashed=0;shape=mxgraph.bootstrap.rrect;rSize=5;fillColor=#E9ECEF;strokeColor=none;" vertex="1" parent="1">
                    <mxGeometry x="420" y="360" width="820" height="20" as="geometry"/>
                </mxCell>
                <mxCell id="jcku4CcbI7h59ROrk2A_-2" value="" style="html=1;shadow=0;dashed=0;shape=mxgraph.bootstrap.leftButton;rSize=5;fillColor=#0085FC;strokeColor=none;resizeHeight=1;" vertex="1" parent="jcku4CcbI7h59ROrk2A_-1">
                    <mxGeometry width="250" height="20" relative="1" as="geometry"/>
                </mxCell>
            </root>
        </mxGraphModel>
    </diagram>
    <diagram id="8nqLPCL2b0-11TFq7aPq" name="Videos-Vista">
        <mxGraphModel dx="1424" dy="936" grid="1" gridSize="10" guides="1" tooltips="1" connect="1" arrows="1" fold="1" page="1" pageScale="1" pageWidth="850" pageHeight="1100" math="0" shadow="0">
            <root>
                <mxCell id="0"/>
                <mxCell id="1" parent="0"/>
                <mxCell id="f-oXZG1fBOhsBShscstV-1" value="Videos" style="dashed=0;align=center;fontSize=30;shape=rect;fillColor=#0050ef;strokeColor=#001DBC;shadow=0;hachureGap=4;pointerEvents=0;fontFamily=Helvetica;fontColor=#ffffff;" vertex="1" parent="1">
                    <mxGeometry x="405" y="250" width="840" height="110" as="geometry"/>
                </mxCell>
                <mxCell id="f-oXZG1fBOhsBShscstV-2" value="" style="verticalLabelPosition=bottom;verticalAlign=top;html=1;shadow=0;dashed=0;strokeWidth=1;shape=mxgraph.android.phone2;strokeColor=#006EAF;fillColor=#1ba1e2;fontColor=#ffffff;" vertex="1" parent="1">
                    <mxGeometry x="375" y="90" width="900" height="1800" as="geometry"/>
                </mxCell>
                <mxCell id="3ip45JXy39qgY_Dozwcs-1" value="" style="html=1;shadow=0;dashed=0;shape=mxgraph.bootstrap.rrect;rSize=5;fillColor=#E9ECEF;strokeColor=none;" vertex="1" parent="1">
                    <mxGeometry x="420" y="360" width="820" height="20" as="geometry"/>
                </mxCell>
                <mxCell id="3ip45JXy39qgY_Dozwcs-2" value="" style="html=1;shadow=0;dashed=0;shape=mxgraph.bootstrap.leftButton;rSize=5;fillColor=#0085FC;strokeColor=none;resizeHeight=1;" vertex="1" parent="3ip45JXy39qgY_Dozwcs-1">
                    <mxGeometry width="250" height="20" relative="1" as="geometry"/>
                </mxCell>
                <mxCell id="3ip45JXy39qgY_Dozwcs-3" value="" style="dashed=0;shape=rect;fillColor=#ffffff;strokeColor=none;" vertex="1" parent="1">
                    <mxGeometry x="420" y="380" width="810" height="1340" as="geometry"/>
                </mxCell>
                <mxCell id="3ip45JXy39qgY_Dozwcs-4" value="" style="shape=rect;fillColor=#ffffff;strokeColor=#eeeeee;shadow=0;resizeWidth=1;whiteSpace=wrap;html=1;" vertex="1" parent="3ip45JXy39qgY_Dozwcs-3">
                    <mxGeometry width="810" height="103" relative="1" as="geometry">
                        <mxPoint y="81" as="offset"/>
                    </mxGeometry>
                </mxCell>
                <mxCell id="3ip45JXy39qgY_Dozwcs-5" value="Titulo&#xa;Descripcion" style="text;whiteSpace=wrap;fontColor=#000000;verticalAlign=top;align=left;fontSize=15;spacing=16;spacingBottom=0;spacingTop=-12;resizeWidth=1;" vertex="1" parent="3ip45JXy39qgY_Dozwcs-4">
                    <mxGeometry width="552.0670391061453" height="60" relative="1" as="geometry"/>
                </mxCell>
                <mxCell id="3ip45JXy39qgY_Dozwcs-6" value="&amp;lt;Fecha de video&amp;gt;" style="text;whiteSpace=wrap;spacingLeft=16;spacingRight=16;spacing=0;fontSize=12;fontColor=#999999;spacingBottom=0;spacingTop=-5;resizeWidth=1;html=1;" vertex="1" parent="3ip45JXy39qgY_Dozwcs-4">
                    <mxGeometry width="552.0670391061453" height="20" relative="1" as="geometry">
                        <mxPoint y="72" as="offset"/>
                    </mxGeometry>
                </mxCell>
                <mxCell id="3ip45JXy39qgY_Dozwcs-7" value="Video para ver en Youtube" style="dashed=0;shape=mxgraph.gmdl.marginRect;rectMargin=12;rectMarginLeft=-12;fillColor=#BDBDBD;strokeColor=none;" vertex="1" parent="3ip45JXy39qgY_Dozwcs-4">
                    <mxGeometry x="552.0670391061453" width="253.40782122905028" height="103" as="geometry"/>
                </mxCell>
                <mxCell id="3ip45JXy39qgY_Dozwcs-8" value="" style="shape=rect;fillColor=#ffffff;strokeColor=#eeeeee;shadow=0;resizeWidth=1;whiteSpace=wrap;html=1;" vertex="1" parent="3ip45JXy39qgY_Dozwcs-3">
                    <mxGeometry width="810" height="103" relative="1" as="geometry">
                        <mxPoint y="184" as="offset"/>
                    </mxGeometry>
                </mxCell>
                <mxCell id="3ip45JXy39qgY_Dozwcs-9" value="Titulo&#xa;Descripcion" style="text;whiteSpace=wrap;fontColor=#000000;verticalAlign=top;align=left;fontSize=15;spacing=16;spacingBottom=0;spacingTop=-12;resizeWidth=1;" vertex="1" parent="3ip45JXy39qgY_Dozwcs-8">
                    <mxGeometry width="552.0670391061453" height="60" relative="1" as="geometry"/>
                </mxCell>
                <mxCell id="3ip45JXy39qgY_Dozwcs-10" value="&lt;span style=&quot;color: rgb(106, 106, 106);&quot;&gt;&amp;lt;Fecha de video&amp;gt;&lt;/span&gt;" style="text;whiteSpace=wrap;spacingLeft=16;spacingRight=16;spacing=0;fontSize=12;fontColor=#999999;spacingBottom=0;spacingTop=-5;resizeWidth=1;html=1;" vertex="1" parent="3ip45JXy39qgY_Dozwcs-8">
                    <mxGeometry width="552.0670391061453" height="20" relative="1" as="geometry">
                        <mxPoint y="72" as="offset"/>
                    </mxGeometry>
                </mxCell>
                <mxCell id="3ip45JXy39qgY_Dozwcs-11" value="Video para ver en Youtube" style="dashed=0;shape=mxgraph.gmdl.marginRect;rectMargin=12;rectMarginLeft=-12;fillColor=#BDBDBD;strokeColor=none;" vertex="1" parent="3ip45JXy39qgY_Dozwcs-8">
                    <mxGeometry x="552.0670391061453" width="253.40782122905028" height="103" as="geometry"/>
                </mxCell>
                <mxCell id="3ip45JXy39qgY_Dozwcs-12" value="" style="shape=rect;fillColor=#ffffff;strokeColor=#eeeeee;shadow=0;resizeWidth=1;whiteSpace=wrap;html=1;" vertex="1" parent="3ip45JXy39qgY_Dozwcs-3">
                    <mxGeometry width="810" height="103" relative="1" as="geometry">
                        <mxPoint y="287" as="offset"/>
                    </mxGeometry>
                </mxCell>
                <mxCell id="3ip45JXy39qgY_Dozwcs-13" value="Titulo&#xa;Descripcion" style="text;whiteSpace=wrap;fontColor=#000000;verticalAlign=top;align=left;fontSize=15;spacing=16;spacingBottom=0;spacingTop=-12;resizeWidth=1;" vertex="1" parent="3ip45JXy39qgY_Dozwcs-12">
                    <mxGeometry width="552.0670391061453" height="60" relative="1" as="geometry"/>
                </mxCell>
                <mxCell id="3ip45JXy39qgY_Dozwcs-14" value="&lt;span style=&quot;color: rgb(106, 106, 106);&quot;&gt;&amp;lt;Fecha de video&amp;gt;&lt;/span&gt;" style="text;whiteSpace=wrap;spacingLeft=16;spacingRight=16;spacing=0;fontSize=12;fontColor=#999999;spacingBottom=0;spacingTop=-5;resizeWidth=1;html=1;" vertex="1" parent="3ip45JXy39qgY_Dozwcs-12">
                    <mxGeometry width="552.0670391061453" height="20" relative="1" as="geometry">
                        <mxPoint y="72" as="offset"/>
                    </mxGeometry>
                </mxCell>
                <mxCell id="3ip45JXy39qgY_Dozwcs-15" value="Video para ver en Youtube" style="dashed=0;shape=mxgraph.gmdl.marginRect;rectMargin=12;rectMarginLeft=-12;fillColor=#BDBDBD;strokeColor=none;" vertex="1" parent="3ip45JXy39qgY_Dozwcs-12">
                    <mxGeometry x="552.0670391061453" width="253.40782122905028" height="103" as="geometry"/>
                </mxCell>
                <mxCell id="3ip45JXy39qgY_Dozwcs-16" value="" style="shape=rect;fillColor=#ffffff;strokeColor=#eeeeee;shadow=0;resizeWidth=1;whiteSpace=wrap;html=1;" vertex="1" parent="3ip45JXy39qgY_Dozwcs-3">
                    <mxGeometry width="810" height="103" relative="1" as="geometry">
                        <mxPoint y="390" as="offset"/>
                    </mxGeometry>
                </mxCell>
                <mxCell id="3ip45JXy39qgY_Dozwcs-17" value="Titulo&#xa;Descripcion" style="text;whiteSpace=wrap;fontColor=#000000;verticalAlign=top;align=left;fontSize=15;spacing=16;spacingBottom=0;spacingTop=-12;resizeWidth=1;" vertex="1" parent="3ip45JXy39qgY_Dozwcs-16">
                    <mxGeometry width="552.0670391061453" height="60" relative="1" as="geometry"/>
                </mxCell>
                <mxCell id="3ip45JXy39qgY_Dozwcs-18" value="&lt;span style=&quot;color: rgb(106, 106, 106);&quot;&gt;&amp;lt;Fecha de video&amp;gt;&lt;/span&gt;" style="text;whiteSpace=wrap;spacingLeft=16;spacingRight=16;spacing=0;fontSize=12;fontColor=#999999;spacingBottom=0;spacingTop=-5;resizeWidth=1;html=1;" vertex="1" parent="3ip45JXy39qgY_Dozwcs-16">
                    <mxGeometry width="552.0670391061453" height="20" relative="1" as="geometry">
                        <mxPoint y="72" as="offset"/>
                    </mxGeometry>
                </mxCell>
                <mxCell id="3ip45JXy39qgY_Dozwcs-19" value="Video para ver en Youtube" style="dashed=0;shape=mxgraph.gmdl.marginRect;rectMargin=12;rectMarginLeft=-12;fillColor=#BDBDBD;strokeColor=none;" vertex="1" parent="3ip45JXy39qgY_Dozwcs-16">
                    <mxGeometry x="552.0670391061453" width="253.40782122905028" height="103" as="geometry"/>
                </mxCell>
                <mxCell id="3ip45JXy39qgY_Dozwcs-20" value="" style="shape=rect;fillColor=#ffffff;strokeColor=#eeeeee;shadow=0;resizeWidth=1;whiteSpace=wrap;html=1;" vertex="1" parent="3ip45JXy39qgY_Dozwcs-3">
                    <mxGeometry width="810" height="101" relative="1" as="geometry">
                        <mxPoint y="493" as="offset"/>
                    </mxGeometry>
                </mxCell>
                <mxCell id="3ip45JXy39qgY_Dozwcs-21" value="Titulo&#xa;Descripcion" style="text;whiteSpace=wrap;fontColor=#000000;verticalAlign=top;align=left;fontSize=15;spacing=16;spacingBottom=0;spacingTop=-12;resizeWidth=1;" vertex="1" parent="3ip45JXy39qgY_Dozwcs-20">
                    <mxGeometry width="552.0670391061453" height="60" relative="1" as="geometry"/>
                </mxCell>
                <mxCell id="3ip45JXy39qgY_Dozwcs-22" value="&lt;span style=&quot;color: rgb(106, 106, 106);&quot;&gt;&amp;lt;Fecha de video&amp;gt;&lt;/span&gt;" style="text;whiteSpace=wrap;spacingLeft=16;spacingRight=16;spacing=0;fontSize=12;fontColor=#999999;spacingBottom=0;spacingTop=-5;resizeWidth=1;html=1;" vertex="1" parent="3ip45JXy39qgY_Dozwcs-20">
                    <mxGeometry width="552.0670391061453" height="20" relative="1" as="geometry">
                        <mxPoint y="72" as="offset"/>
                    </mxGeometry>
                </mxCell>
                <mxCell id="3ip45JXy39qgY_Dozwcs-23" value="Video para ver en Youtube" style="dashed=0;shape=mxgraph.gmdl.marginRect;rectMargin=12;rectMarginLeft=-12;fillColor=#BDBDBD;strokeColor=none;" vertex="1" parent="3ip45JXy39qgY_Dozwcs-20">
                    <mxGeometry x="552.0670391061453" width="253.40782122905028" height="103" as="geometry"/>
                </mxCell>
            </root>
        </mxGraphModel>
    </diagram>
    <diagram id="L9X-Xae9SLxuARYuUaAG" name="Albergue-Vista">
        <mxGraphModel dx="2017" dy="1327" grid="1" gridSize="10" guides="1" tooltips="1" connect="1" arrows="1" fold="1" page="1" pageScale="1" pageWidth="850" pageHeight="1100" math="0" shadow="0">
            <root>
                <mxCell id="0"/>
                <mxCell id="1" parent="0"/>
                <mxCell id="OkgoCL8p7KcTmexAKtgM-1" value="" style="verticalLabelPosition=bottom;verticalAlign=top;html=1;shadow=0;dashed=0;strokeWidth=1;shape=mxgraph.android.phone2;strokeColor=#006EAF;fillColor=#1ba1e2;fontColor=#ffffff;" vertex="1" parent="1">
                    <mxGeometry x="375" y="90" width="900" height="1800" as="geometry"/>
                </mxCell>
                <mxCell id="x8V7AJXLF6BCzl5lH1Ui-1" value="Albergues" style="dashed=0;align=center;fontSize=30;shape=rect;fillColor=#0050ef;strokeColor=#001DBC;shadow=0;hachureGap=4;pointerEvents=0;fontFamily=Helvetica;fontColor=#ffffff;" vertex="1" parent="1">
                    <mxGeometry x="410" y="250" width="835" height="110" as="geometry"/>
                </mxCell>
                <mxCell id="0_6703NorpMcPQIdd4vr-1" value="" style="dashed=0;shape=rect;fillColor=#ffffff;strokeColor=none;" vertex="1" parent="1">
                    <mxGeometry x="420" y="380" width="810" height="1340" as="geometry"/>
                </mxCell>
                <mxCell id="0_6703NorpMcPQIdd4vr-2" value="" style="shape=rect;fillColor=#ffffff;strokeColor=#eeeeee;shadow=0;resizeWidth=1;whiteSpace=wrap;html=1;" vertex="1" parent="0_6703NorpMcPQIdd4vr-1">
                    <mxGeometry width="810" height="103" relative="1" as="geometry">
                        <mxPoint y="81" as="offset"/>
                    </mxGeometry>
                </mxCell>
                <mxCell id="0_6703NorpMcPQIdd4vr-3" value="Ciudad - Codigo&#xa;Edificio&#xa;Coordinador" style="text;whiteSpace=wrap;fontColor=#000000;verticalAlign=top;align=left;fontSize=15;spacing=16;spacingBottom=0;spacingTop=-12;resizeWidth=1;" vertex="1" parent="0_6703NorpMcPQIdd4vr-2">
                    <mxGeometry width="552.0670391061453" height="60" relative="1" as="geometry"/>
                </mxCell>
                <mxCell id="0_6703NorpMcPQIdd4vr-4" value="Telefono" style="text;whiteSpace=wrap;spacingLeft=16;spacingRight=16;spacing=0;fontSize=12;fontColor=#999999;spacingBottom=0;spacingTop=-5;resizeWidth=1;html=1;" vertex="1" parent="0_6703NorpMcPQIdd4vr-2">
                    <mxGeometry width="552.0670391061453" height="20" relative="1" as="geometry">
                        <mxPoint y="72" as="offset"/>
                    </mxGeometry>
                </mxCell>
                <mxCell id="0_6703NorpMcPQIdd4vr-24" value="Detalles" style="whiteSpace=wrap;html=1;dashed=0;align=center;fontSize=12;shape=rect;fillColor=#2196F3;strokeColor=none;fontStyle=1;shadow=1;fontColor=#ffffff;" vertex="1" parent="0_6703NorpMcPQIdd4vr-2">
                    <mxGeometry x="610" y="-1" width="200" height="101" as="geometry"/>
                </mxCell>
                <mxCell id="0_6703NorpMcPQIdd4vr-6" value="" style="shape=rect;fillColor=#ffffff;strokeColor=#eeeeee;shadow=0;resizeWidth=1;whiteSpace=wrap;html=1;" vertex="1" parent="0_6703NorpMcPQIdd4vr-1">
                    <mxGeometry width="810" height="103" relative="1" as="geometry">
                        <mxPoint y="184" as="offset"/>
                    </mxGeometry>
                </mxCell>
                <mxCell id="0_6703NorpMcPQIdd4vr-42" value="Detalles" style="whiteSpace=wrap;html=1;dashed=0;align=center;fontSize=12;shape=rect;fillColor=#2196F3;strokeColor=none;fontStyle=1;shadow=1;fontColor=#ffffff;" vertex="1" parent="0_6703NorpMcPQIdd4vr-6">
                    <mxGeometry x="610" y="-4" width="200" height="101" as="geometry"/>
                </mxCell>
                <mxCell id="0_6703NorpMcPQIdd4vr-48" value="Ciudad - Codigo&#xa;Edificio&#xa;Coordinador" style="text;whiteSpace=wrap;fontColor=#000000;verticalAlign=top;align=left;fontSize=15;spacing=16;spacingBottom=0;spacingTop=-12;resizeWidth=1;" vertex="1" parent="0_6703NorpMcPQIdd4vr-6">
                    <mxGeometry y="5" width="552.0670391061453" height="60" as="geometry"/>
                </mxCell>
                <mxCell id="0_6703NorpMcPQIdd4vr-49" value="Telefono" style="text;whiteSpace=wrap;spacingLeft=16;spacingRight=16;spacing=0;fontSize=12;fontColor=#999999;spacingBottom=0;spacingTop=-5;resizeWidth=1;html=1;" vertex="1" parent="0_6703NorpMcPQIdd4vr-6">
                    <mxGeometry y="77" width="552.0670391061453" height="20" as="geometry"/>
                </mxCell>
                <mxCell id="0_6703NorpMcPQIdd4vr-10" value="" style="shape=rect;fillColor=#ffffff;strokeColor=#eeeeee;shadow=0;resizeWidth=1;whiteSpace=wrap;html=1;" vertex="1" parent="0_6703NorpMcPQIdd4vr-1">
                    <mxGeometry width="810" height="104" relative="1" as="geometry">
                        <mxPoint y="287" as="offset"/>
                    </mxGeometry>
                </mxCell>
                <mxCell id="0_6703NorpMcPQIdd4vr-43" value="Detalles" style="whiteSpace=wrap;html=1;dashed=0;align=center;fontSize=12;shape=rect;fillColor=#2196F3;strokeColor=none;fontStyle=1;shadow=1;fontColor=#ffffff;" vertex="1" parent="0_6703NorpMcPQIdd4vr-10">
                    <mxGeometry x="610" width="200" height="104" as="geometry"/>
                </mxCell>
                <mxCell id="0_6703NorpMcPQIdd4vr-50" value="Ciudad - Codigo&#xa;Edificio&#xa;Coordinador" style="text;whiteSpace=wrap;fontColor=#000000;verticalAlign=top;align=left;fontSize=15;spacing=16;spacingBottom=0;spacingTop=-12;resizeWidth=1;" vertex="1" parent="0_6703NorpMcPQIdd4vr-10">
                    <mxGeometry y="6" width="552.0670391061453" height="60" as="geometry"/>
                </mxCell>
                <mxCell id="0_6703NorpMcPQIdd4vr-51" value="Telefono" style="text;whiteSpace=wrap;spacingLeft=16;spacingRight=16;spacing=0;fontSize=12;fontColor=#999999;spacingBottom=0;spacingTop=-5;resizeWidth=1;html=1;" vertex="1" parent="0_6703NorpMcPQIdd4vr-10">
                    <mxGeometry y="78" width="552.0670391061453" height="20" as="geometry"/>
                </mxCell>
                <mxCell id="0_6703NorpMcPQIdd4vr-14" value="" style="shape=rect;fillColor=#ffffff;strokeColor=#eeeeee;shadow=0;resizeWidth=1;whiteSpace=wrap;html=1;" vertex="1" parent="0_6703NorpMcPQIdd4vr-1">
                    <mxGeometry width="810" height="103" relative="1" as="geometry">
                        <mxPoint y="390" as="offset"/>
                    </mxGeometry>
                </mxCell>
                <mxCell id="0_6703NorpMcPQIdd4vr-44" value="Detalles" style="whiteSpace=wrap;html=1;dashed=0;align=center;fontSize=12;shape=rect;fillColor=#2196F3;strokeColor=none;fontStyle=1;shadow=1;fontColor=#ffffff;" vertex="1" parent="0_6703NorpMcPQIdd4vr-14">
                    <mxGeometry x="610" width="200" height="101" as="geometry"/>
                </mxCell>
                <mxCell id="0_6703NorpMcPQIdd4vr-52" value="Ciudad - Codigo&#xa;Edificio&#xa;Coordinador" style="text;whiteSpace=wrap;fontColor=#000000;verticalAlign=top;align=left;fontSize=15;spacing=16;spacingBottom=0;spacingTop=-12;resizeWidth=1;" vertex="1" parent="0_6703NorpMcPQIdd4vr-14">
                    <mxGeometry width="552.0670391061453" height="60" as="geometry"/>
                </mxCell>
                <mxCell id="0_6703NorpMcPQIdd4vr-53" value="Telefono" style="text;whiteSpace=wrap;spacingLeft=16;spacingRight=16;spacing=0;fontSize=12;fontColor=#999999;spacingBottom=0;spacingTop=-5;resizeWidth=1;html=1;" vertex="1" parent="0_6703NorpMcPQIdd4vr-14">
                    <mxGeometry y="72" width="552.0670391061453" height="20" as="geometry"/>
                </mxCell>
                <mxCell id="0_6703NorpMcPQIdd4vr-18" value="" style="shape=rect;fillColor=#ffffff;strokeColor=#eeeeee;shadow=0;resizeWidth=1;whiteSpace=wrap;html=1;" vertex="1" parent="0_6703NorpMcPQIdd4vr-1">
                    <mxGeometry width="810" height="101" relative="1" as="geometry">
                        <mxPoint y="493" as="offset"/>
                    </mxGeometry>
                </mxCell>
                <mxCell id="0_6703NorpMcPQIdd4vr-45" value="Detalles" style="whiteSpace=wrap;html=1;dashed=0;align=center;fontSize=12;shape=rect;fillColor=#2196F3;strokeColor=none;fontStyle=1;shadow=1;fontColor=#ffffff;" vertex="1" parent="0_6703NorpMcPQIdd4vr-18">
                    <mxGeometry x="610" y="-3" width="200" height="101" as="geometry"/>
                </mxCell>
                <mxCell id="0_6703NorpMcPQIdd4vr-54" value="Ciudad - Codigo&#xa;Edificio&#xa;Coordinador" style="text;whiteSpace=wrap;fontColor=#000000;verticalAlign=top;align=left;fontSize=15;spacing=16;spacingBottom=0;spacingTop=-12;resizeWidth=1;" vertex="1" parent="0_6703NorpMcPQIdd4vr-18">
                    <mxGeometry y="6" width="552.0670391061453" height="60" as="geometry"/>
                </mxCell>
                <mxCell id="0_6703NorpMcPQIdd4vr-55" value="Telefono" style="text;whiteSpace=wrap;spacingLeft=16;spacingRight=16;spacing=0;fontSize=12;fontColor=#999999;spacingBottom=0;spacingTop=-5;resizeWidth=1;html=1;" vertex="1" parent="0_6703NorpMcPQIdd4vr-18">
                    <mxGeometry y="78" width="552.0670391061453" height="20" as="geometry"/>
                </mxCell>
                <mxCell id="ijmUcupNGTGQYO3OccZy-2" value="&lt;font style=&quot;font-size: 40px;&quot;&gt;VER MAPA DE ALBERGUES&lt;/font&gt;" style="whiteSpace=wrap;html=1;dashed=0;align=center;fontSize=12;shape=rect;fillColor=#2196F3;strokeColor=none;fontStyle=1;shadow=1;fontColor=#ffffff;" vertex="1" parent="0_6703NorpMcPQIdd4vr-1">
                    <mxGeometry x="10" y="1240" width="780" height="80" as="geometry"/>
                </mxCell>
                <mxCell id="mAc8mhnsQaCfLQMTtByA-1" value="" style="html=1;shadow=0;dashed=0;shape=mxgraph.bootstrap.rrect;rSize=5;fillColor=#E9ECEF;strokeColor=none;" vertex="1" parent="1">
                    <mxGeometry x="420" y="360" width="820" height="20" as="geometry"/>
                </mxCell>
                <mxCell id="mAc8mhnsQaCfLQMTtByA-2" value="" style="html=1;shadow=0;dashed=0;shape=mxgraph.bootstrap.leftButton;rSize=5;fillColor=#0085FC;strokeColor=none;resizeHeight=1;" vertex="1" parent="mAc8mhnsQaCfLQMTtByA-1">
                    <mxGeometry width="250" height="20" relative="1" as="geometry"/>
                </mxCell>
            </root>
        </mxGraphModel>
    </diagram>
    <diagram id="_t06h1Ivx8L0wLXvF_BI" name="Albergue-Detalle">
        <mxGraphModel dx="1323" dy="796" grid="1" gridSize="10" guides="1" tooltips="1" connect="1" arrows="1" fold="1" page="1" pageScale="1" pageWidth="850" pageHeight="1100" math="0" shadow="0">
            <root>
                <mxCell id="0"/>
                <mxCell id="1" parent="0"/>
                <mxCell id="mPZavQAkolLawi_3YP-2-1" value="" style="verticalLabelPosition=bottom;verticalAlign=top;html=1;shadow=0;dashed=0;strokeWidth=1;shape=mxgraph.android.phone2;strokeColor=#006EAF;fillColor=#1ba1e2;fontColor=#ffffff;" parent="1" vertex="1">
                    <mxGeometry x="375" y="90" width="900" height="1800" as="geometry"/>
                </mxCell>
                <mxCell id="mPZavQAkolLawi_3YP-2-2" value="Albergue - Detalle" style="dashed=0;align=center;fontSize=30;shape=rect;fillColor=#0050ef;strokeColor=#001DBC;shadow=0;hachureGap=4;pointerEvents=0;fontFamily=Helvetica;fontColor=#ffffff;" parent="1" vertex="1">
                    <mxGeometry x="410" y="250" width="835" height="110" as="geometry"/>
                </mxCell>
                <mxCell id="4BO63REMIVCZTNavqP5S-1" value="MAPA&#xa;Toma Lat y Lng" style="shape=rect;fillColor=#BDBDBD;strokeColor=#BDBDBD;shadow=1;fontSize=14;container=0;" parent="1" vertex="1">
                    <mxGeometry x="420" y="840" width="810" height="450" as="geometry"/>
                </mxCell>
                <mxCell id="4BO63REMIVCZTNavqP5S-6" value="" style="group" parent="1" vertex="1" connectable="0">
                    <mxGeometry x="420" y="370" width="810" height="470" as="geometry"/>
                </mxCell>
                <mxCell id="4BO63REMIVCZTNavqP5S-2" value="" style="shape=rect;strokeColor=none;whiteSpace=wrap;html=1;align=left;spacingLeft=16;fontColor=#666666;fontSize=14;" parent="4BO63REMIVCZTNavqP5S-6" vertex="1">
                    <mxGeometry x="-5" width="810.0000000000001" height="470" as="geometry"/>
                </mxCell>
                <mxCell id="4BO63REMIVCZTNavqP5S-3" value="&lt;span style=&quot;color: rgb(0, 0, 0); font-family: Helvetica; font-style: normal; font-variant-ligatures: normal; font-variant-caps: normal; font-weight: 400; letter-spacing: normal; orphans: 2; text-align: left; text-indent: 0px; text-transform: none; widows: 2; word-spacing: 0px; -webkit-text-stroke-width: 0px; white-space: normal; background-color: rgb(251, 251, 251); text-decoration-thickness: initial; text-decoration-style: initial; text-decoration-color: initial; float: none; display: inline !important;&quot;&gt;Ciudad -Codigo&lt;/span&gt;" style="text;whiteSpace=wrap;html=1;fontSize=18;" parent="4BO63REMIVCZTNavqP5S-6" vertex="1">
                    <mxGeometry x="10" y="13.95" width="180" height="46.05" as="geometry"/>
                </mxCell>
                <mxCell id="4BO63REMIVCZTNavqP5S-4" value="&lt;span style=&quot;color: rgb(146, 146, 146); font-family: Helvetica; font-style: normal; font-variant-ligatures: normal; font-variant-caps: normal; font-weight: 400; letter-spacing: normal; orphans: 2; text-align: left; text-indent: 0px; text-transform: none; widows: 2; word-spacing: 0px; -webkit-text-stroke-width: 0px; white-space: normal; background-color: rgb(251, 251, 251); text-decoration-thickness: initial; text-decoration-style: initial; text-decoration-color: initial; float: none; display: inline !important;&quot;&gt;&lt;font style=&quot;font-size: 18px;&quot;&gt;Edificio&lt;/font&gt;&lt;/span&gt;" style="text;whiteSpace=wrap;html=1;" parent="4BO63REMIVCZTNavqP5S-6" vertex="1">
                    <mxGeometry x="10" y="106.05067293564504" width="110" height="35.08081104907434" as="geometry"/>
                </mxCell>
                <mxCell id="4BO63REMIVCZTNavqP5S-5" value="&lt;div&gt;&lt;span style=&quot;font-size: 13px;&quot;&gt;Capacidad&lt;/span&gt;&lt;/div&gt;" style="text;whiteSpace=wrap;html=1;" parent="4BO63REMIVCZTNavqP5S-6" vertex="1">
                    <mxGeometry x="10" y="189.35" width="150" height="50.65" as="geometry"/>
                </mxCell>
                <mxCell id="bhZNC2WBt64v22VZJPf--1" value="&lt;span style=&quot;color: rgb(0, 0, 0); font-family: Helvetica; font-style: normal; font-variant-ligatures: normal; font-variant-caps: normal; font-weight: 400; letter-spacing: normal; orphans: 2; text-align: left; text-indent: 0px; text-transform: none; widows: 2; word-spacing: 0px; -webkit-text-stroke-width: 0px; white-space: normal; background-color: rgb(251, 251, 251); text-decoration-thickness: initial; text-decoration-style: initial; text-decoration-color: initial; float: none; display: inline !important;&quot;&gt;Coordinador&lt;/span&gt;" style="text;whiteSpace=wrap;html=1;fontSize=18;" parent="4BO63REMIVCZTNavqP5S-6" vertex="1">
                    <mxGeometry x="10" y="60" width="180" height="46.05" as="geometry"/>
                </mxCell>
                <mxCell id="bhZNC2WBt64v22VZJPf--2" value="&lt;span style=&quot;color: rgb(146, 146, 146); font-family: Helvetica; font-style: normal; font-variant-ligatures: normal; font-variant-caps: normal; font-weight: 400; letter-spacing: normal; orphans: 2; text-align: left; text-indent: 0px; text-transform: none; widows: 2; word-spacing: 0px; -webkit-text-stroke-width: 0px; white-space: normal; background-color: rgb(251, 251, 251); text-decoration-thickness: initial; text-decoration-style: initial; text-decoration-color: initial; float: none; display: inline !important;&quot;&gt;&lt;font style=&quot;font-size: 18px;&quot;&gt;Telefono&lt;/font&gt;&lt;/span&gt;" style="text;whiteSpace=wrap;html=1;" parent="4BO63REMIVCZTNavqP5S-6" vertex="1">
                    <mxGeometry x="10" y="141.130672935645" width="110" height="35.08081104907434" as="geometry"/>
                </mxCell>
            </root>
        </mxGraphModel>
    </diagram>
    <diagram name="Albergue-MAPA" id="6Avpcw-CdxXSd4T7ZFpX">
        <mxGraphModel dx="3308" dy="1990" grid="1" gridSize="10" guides="1" tooltips="1" connect="1" arrows="1" fold="1" page="1" pageScale="1" pageWidth="850" pageHeight="1100" math="0" shadow="0">
            <root>
                <mxCell id="AeB3eGKKXHlYct7kkJfS-0"/>
                <mxCell id="AeB3eGKKXHlYct7kkJfS-1" parent="AeB3eGKKXHlYct7kkJfS-0"/>
                <mxCell id="AeB3eGKKXHlYct7kkJfS-2" value="" style="verticalLabelPosition=bottom;verticalAlign=top;html=1;shadow=0;dashed=0;strokeWidth=1;shape=mxgraph.android.phone2;strokeColor=#006EAF;fillColor=#1ba1e2;fontColor=#ffffff;" parent="AeB3eGKKXHlYct7kkJfS-1" vertex="1">
                    <mxGeometry x="375" y="90" width="900" height="1800" as="geometry"/>
                </mxCell>
                <mxCell id="AeB3eGKKXHlYct7kkJfS-3" value="Albergue - Mapa" style="dashed=0;align=center;fontSize=30;shape=rect;fillColor=#0050ef;strokeColor=#001DBC;shadow=0;hachureGap=4;pointerEvents=0;fontFamily=Helvetica;fontColor=#ffffff;" parent="AeB3eGKKXHlYct7kkJfS-1" vertex="1">
                    <mxGeometry x="410" y="250" width="835" height="110" as="geometry"/>
                </mxCell>
                <mxCell id="AeB3eGKKXHlYct7kkJfS-4" value="MAPA&#xa;Toma Lat y Lng, y muestra muchos markers" style="shape=rect;fillColor=#BDBDBD;strokeColor=#BDBDBD;shadow=1;fontSize=24;container=0;" parent="AeB3eGKKXHlYct7kkJfS-1" vertex="1">
                    <mxGeometry x="420" y="370" width="810" height="1340" as="geometry"/>
                </mxCell>
            </root>
        </mxGraphModel>
    </diagram>
    <diagram id="_8cKQkEdTnztzCsRAv2e" name="Miembros-Vista">
        <mxGraphModel dx="2017" dy="1327" grid="1" gridSize="10" guides="1" tooltips="1" connect="1" arrows="1" fold="1" page="1" pageScale="1" pageWidth="850" pageHeight="1100" math="0" shadow="0">
            <root>
                <mxCell id="0"/>
                <mxCell id="1" parent="0"/>
                <mxCell id="em1UDfuDn4olDc2rArLk-1" value="" style="verticalLabelPosition=bottom;verticalAlign=top;html=1;shadow=0;dashed=0;strokeWidth=1;shape=mxgraph.android.phone2;strokeColor=#006EAF;fillColor=#1ba1e2;fontColor=#ffffff;" vertex="1" parent="1">
                    <mxGeometry x="375" y="90" width="900" height="1800" as="geometry"/>
                </mxCell>
                <mxCell id="caETwTz4-m1HXYQyIQvT-1" value="" style="html=1;shadow=0;dashed=0;shape=mxgraph.bootstrap.rrect;rSize=5;fillColor=#E9ECEF;strokeColor=none;" vertex="1" parent="1">
                    <mxGeometry x="420" y="360" width="820" height="20" as="geometry"/>
                </mxCell>
                <mxCell id="caETwTz4-m1HXYQyIQvT-2" value="" style="html=1;shadow=0;dashed=0;shape=mxgraph.bootstrap.leftButton;rSize=5;fillColor=#0085FC;strokeColor=none;resizeHeight=1;" vertex="1" parent="caETwTz4-m1HXYQyIQvT-1">
                    <mxGeometry width="250" height="20" relative="1" as="geometry"/>
                </mxCell>
                <mxCell id="2rwB8K3akLA6WJa8fku--1" value="Miembros" style="dashed=0;align=center;fontSize=30;shape=rect;fillColor=#0050ef;strokeColor=#001DBC;shadow=0;hachureGap=4;pointerEvents=0;fontFamily=Helvetica;fontColor=#ffffff;" vertex="1" parent="1">
                    <mxGeometry x="410" y="250" width="835" height="110" as="geometry"/>
                </mxCell>
                <mxCell id="4QVnkoQMeE2gZana7HsW-1" value="" style="dashed=0;shape=rect;fillColor=#ffffff;strokeColor=none;" vertex="1" parent="1">
                    <mxGeometry x="422.5" y="390" width="810" height="1330" as="geometry"/>
                </mxCell>
                <mxCell id="4QVnkoQMeE2gZana7HsW-7" value="&amp;lt;Nombre&amp;gt;" style="text;fontSize=16;align=left;verticalAlign=top;spacingTop=57;resizeWidth=1;spacingLeft=72;resizeWidth=1;strokeColor=#eeeeee;whiteSpace=wrap;html=1;" vertex="1" parent="4QVnkoQMeE2gZana7HsW-1">
                    <mxGeometry width="810" height="136" relative="1" as="geometry">
                        <mxPoint as="offset"/>
                    </mxGeometry>
                </mxCell>
                <mxCell id="4QVnkoQMeE2gZana7HsW-8" value="" style="dashed=0;shape=mxgraph.gmdl.user;strokeColor=none;fillColor=#808080;" vertex="1" parent="4QVnkoQMeE2gZana7HsW-7">
                    <mxGeometry width="40" height="40" relative="1" as="geometry">
                        <mxPoint x="16" y="64" as="offset"/>
                    </mxGeometry>
                </mxCell>
                <mxCell id="4QVnkoQMeE2gZana7HsW-9" value="&lt;font color=&quot;#ededed&quot;&gt;&lt;span style=&quot;font-size: 14px;&quot;&gt;&amp;lt;Cargo&amp;gt;&lt;/span&gt;&lt;/font&gt;" style="text;fontSize=13;verticalAlign=middle;spacingLeft=72;whiteSpace=wrap;fontColor=#666666;html=1;spacingRight=14;resizeWidth=1;" vertex="1" parent="4QVnkoQMeE2gZana7HsW-7">
                    <mxGeometry width="810" height="66" relative="1" as="geometry">
                        <mxPoint y="70" as="offset"/>
                    </mxGeometry>
                </mxCell>
                <mxCell id="4QVnkoQMeE2gZana7HsW-11" value="&amp;lt;Nombre&amp;gt;" style="text;fontSize=16;align=left;verticalAlign=top;spacing=16;spacingTop=-6;html=1;spacingLeft=56;resizeWidth=1;strokeColor=#eeeeee;whiteSpace=wrap;" vertex="1" parent="4QVnkoQMeE2gZana7HsW-1">
                    <mxGeometry width="810" height="86" relative="1" as="geometry">
                        <mxPoint x="3" y="140" as="offset"/>
                    </mxGeometry>
                </mxCell>
                <mxCell id="4QVnkoQMeE2gZana7HsW-12" value="" style="dashed=0;shape=mxgraph.gmdl.user;strokeColor=none;fillColor=#808080;" vertex="1" parent="4QVnkoQMeE2gZana7HsW-11">
                    <mxGeometry width="40" height="40" relative="1" as="geometry">
                        <mxPoint x="16" y="13" as="offset"/>
                    </mxGeometry>
                </mxCell>
                <mxCell id="4QVnkoQMeE2gZana7HsW-13" value="&lt;font color=&quot;#ededed&quot;&gt;&lt;span style=&quot;font-size: 14px;&quot;&gt;&amp;lt;Cargo&amp;gt;&lt;/span&gt;&lt;/font&gt;" style="text;fontSize=13;verticalAlign=top;whiteSpace=wrap;spacingRight=16;fontColor=#666666;html=1;resizeWidth=1;spacingLeft=72;spacingTop=2;" vertex="1" parent="4QVnkoQMeE2gZana7HsW-11">
                    <mxGeometry width="810" height="66" relative="1" as="geometry">
                        <mxPoint y="30" as="offset"/>
                    </mxGeometry>
                </mxCell>
                <mxCell id="4QVnkoQMeE2gZana7HsW-14" value="&amp;lt;Nombre&amp;gt;" style="text;fontSize=16;align=left;verticalAlign=top;spacing=16;spacingTop=-6;html=1;spacingLeft=56;resizeWidth=1;strokeColor=#eeeeee;whiteSpace=wrap;" vertex="1" parent="4QVnkoQMeE2gZana7HsW-1">
                    <mxGeometry width="810" height="86" relative="1" as="geometry">
                        <mxPoint x="3" y="230" as="offset"/>
                    </mxGeometry>
                </mxCell>
                <mxCell id="4QVnkoQMeE2gZana7HsW-15" value="" style="dashed=0;shape=mxgraph.gmdl.user;strokeColor=none;fillColor=#808080;" vertex="1" parent="4QVnkoQMeE2gZana7HsW-14">
                    <mxGeometry width="40" height="40" relative="1" as="geometry">
                        <mxPoint x="16" y="13" as="offset"/>
                    </mxGeometry>
                </mxCell>
                <mxCell id="4QVnkoQMeE2gZana7HsW-16" value="&lt;font color=&quot;#ededed&quot;&gt;&lt;span style=&quot;font-size: 14px;&quot;&gt;&amp;lt;Cargo&amp;gt;&lt;/span&gt;&lt;/font&gt;" style="text;fontSize=13;verticalAlign=top;whiteSpace=wrap;spacingRight=16;fontColor=#666666;html=1;resizeWidth=1;spacingLeft=72;spacingTop=2;" vertex="1" parent="4QVnkoQMeE2gZana7HsW-14">
                    <mxGeometry width="810" height="66" relative="1" as="geometry">
                        <mxPoint y="30" as="offset"/>
                    </mxGeometry>
                </mxCell>
                <mxCell id="4QVnkoQMeE2gZana7HsW-17" value="&amp;lt;Nombre&amp;gt;" style="text;fontSize=16;align=left;verticalAlign=top;spacing=16;spacingTop=-6;html=1;spacingLeft=56;resizeWidth=1;strokeColor=#eeeeee;whiteSpace=wrap;" vertex="1" parent="4QVnkoQMeE2gZana7HsW-1">
                    <mxGeometry width="810" height="86" relative="1" as="geometry">
                        <mxPoint x="3" y="320" as="offset"/>
                    </mxGeometry>
                </mxCell>
                <mxCell id="4QVnkoQMeE2gZana7HsW-18" value="" style="dashed=0;shape=mxgraph.gmdl.user;strokeColor=none;fillColor=#808080;" vertex="1" parent="4QVnkoQMeE2gZana7HsW-17">
                    <mxGeometry width="40" height="40" relative="1" as="geometry">
                        <mxPoint x="16" y="13" as="offset"/>
                    </mxGeometry>
                </mxCell>
                <mxCell id="4QVnkoQMeE2gZana7HsW-19" value="&lt;span style=&quot;font-size: 14px;&quot;&gt;&amp;lt;Cargo&amp;gt;&lt;/span&gt;" style="text;fontSize=13;verticalAlign=top;whiteSpace=wrap;spacingRight=16;fontColor=#666666;html=1;resizeWidth=1;spacingLeft=72;spacingTop=2;" vertex="1" parent="4QVnkoQMeE2gZana7HsW-17">
                    <mxGeometry width="810" height="66" relative="1" as="geometry">
                        <mxPoint y="30" as="offset"/>
                    </mxGeometry>
                </mxCell>
                <mxCell id="4QVnkoQMeE2gZana7HsW-20" value="&amp;lt;Nombre&amp;gt;" style="text;fontSize=16;align=left;verticalAlign=top;spacing=16;spacingTop=-6;html=1;spacingLeft=56;resizeWidth=1;strokeColor=#eeeeee;whiteSpace=wrap;" vertex="1" parent="4QVnkoQMeE2gZana7HsW-1">
                    <mxGeometry width="810" height="86" relative="1" as="geometry">
                        <mxPoint y="410" as="offset"/>
                    </mxGeometry>
                </mxCell>
                <mxCell id="4QVnkoQMeE2gZana7HsW-21" value="" style="dashed=0;shape=mxgraph.gmdl.user;strokeColor=none;fillColor=#808080;" vertex="1" parent="4QVnkoQMeE2gZana7HsW-20">
                    <mxGeometry width="40" height="40" relative="1" as="geometry">
                        <mxPoint x="16" y="13" as="offset"/>
                    </mxGeometry>
                </mxCell>
                <mxCell id="4QVnkoQMeE2gZana7HsW-22" value="&lt;font color=&quot;#ededed&quot;&gt;&lt;span style=&quot;font-size: 14px;&quot;&gt;&amp;lt;Cargo&amp;gt;&lt;/span&gt;&lt;/font&gt;" style="text;fontSize=13;verticalAlign=top;whiteSpace=wrap;spacingRight=16;fontColor=#666666;html=1;resizeWidth=1;spacingLeft=72;spacingTop=2;" vertex="1" parent="4QVnkoQMeE2gZana7HsW-20">
                    <mxGeometry width="810" height="66" relative="1" as="geometry">
                        <mxPoint y="30" as="offset"/>
                    </mxGeometry>
                </mxCell>
                <mxCell id="4QVnkoQMeE2gZana7HsW-23" value="&amp;lt;Nombre&amp;gt;" style="text;fontSize=16;align=left;verticalAlign=top;spacing=16;spacingTop=-6;html=1;spacingLeft=56;resizeWidth=1;strokeColor=#eeeeee;whiteSpace=wrap;" vertex="1" parent="4QVnkoQMeE2gZana7HsW-1">
                    <mxGeometry width="810" height="96" relative="1" as="geometry">
                        <mxPoint y="500" as="offset"/>
                    </mxGeometry>
                </mxCell>
                <mxCell id="4QVnkoQMeE2gZana7HsW-24" value="" style="dashed=0;shape=mxgraph.gmdl.user;strokeColor=none;fillColor=#808080;" vertex="1" parent="4QVnkoQMeE2gZana7HsW-23">
                    <mxGeometry width="40" height="40" relative="1" as="geometry">
                        <mxPoint x="16" y="13" as="offset"/>
                    </mxGeometry>
                </mxCell>
                <mxCell id="LE492BOYB112EfQKZ8pR-1" value="&lt;font color=&quot;#ededed&quot;&gt;&lt;span style=&quot;font-size: 14px;&quot;&gt;&amp;lt;Cargo&amp;gt;&lt;/span&gt;&lt;/font&gt;" style="text;fontSize=13;verticalAlign=top;whiteSpace=wrap;spacingRight=16;fontColor=#666666;html=1;resizeWidth=1;spacingLeft=72;spacingTop=2;" vertex="1" parent="4QVnkoQMeE2gZana7HsW-23">
                    <mxGeometry x="-2.5" y="30" width="810" height="66" as="geometry"/>
                </mxCell>
            </root>
        </mxGraphModel>
    </diagram>
    <diagram id="GqxZDUugUcmAlD-jTWHK" name="Medidas-Preventivas">
        <mxGraphModel dx="2420" dy="1592" grid="1" gridSize="10" guides="1" tooltips="1" connect="1" arrows="1" fold="1" page="1" pageScale="1" pageWidth="850" pageHeight="1100" math="0" shadow="0">
            <root>
                <mxCell id="0"/>
                <mxCell id="1" parent="0"/>
                <mxCell id="qxTDNHmVyZK6LP-40dy8-1" value="" style="verticalLabelPosition=bottom;verticalAlign=top;html=1;shadow=0;dashed=0;strokeWidth=1;shape=mxgraph.android.phone2;strokeColor=#006EAF;fillColor=#1ba1e2;fontColor=#ffffff;" vertex="1" parent="1">
                    <mxGeometry x="375" y="90" width="900" height="1800" as="geometry"/>
                </mxCell>
                <mxCell id="x0gD3eQeTfv8YlgdDt1J-1" value="Medidas Preventivas" style="dashed=0;align=center;fontSize=30;shape=rect;fillColor=#0050ef;strokeColor=#001DBC;shadow=0;hachureGap=4;pointerEvents=0;fontFamily=Helvetica;fontColor=#ffffff;" vertex="1" parent="1">
                    <mxGeometry x="405" y="250" width="840" height="110" as="geometry"/>
                </mxCell>
                <mxCell id="sBkwnBdAiB2fLJ676EhF-1" value="" style="html=1;shadow=0;dashed=0;shape=mxgraph.bootstrap.rrect;rSize=5;fillColor=#E9ECEF;strokeColor=none;" vertex="1" parent="1">
                    <mxGeometry x="420" y="360" width="820" height="20" as="geometry"/>
                </mxCell>
                <mxCell id="sBkwnBdAiB2fLJ676EhF-2" value="" style="html=1;shadow=0;dashed=0;shape=mxgraph.bootstrap.leftButton;rSize=5;fillColor=#0085FC;strokeColor=none;resizeHeight=1;" vertex="1" parent="sBkwnBdAiB2fLJ676EhF-1">
                    <mxGeometry width="250" height="20" relative="1" as="geometry"/>
                </mxCell>
                <mxCell id="MPKFLcAmijuVhZGKmEF--2" value="" style="dashed=0;shape=rect;fillColor=#ffffff;strokeColor=none;" vertex="1" parent="1">
                    <mxGeometry x="420" y="380" width="810" height="1340" as="geometry"/>
                </mxCell>
                <mxCell id="MPKFLcAmijuVhZGKmEF--3" value="" style="shape=rect;fillColor=#ffffff;strokeColor=#eeeeee;shadow=0;resizeWidth=1;whiteSpace=wrap;html=1;" vertex="1" parent="MPKFLcAmijuVhZGKmEF--2">
                    <mxGeometry width="810" height="103" relative="1" as="geometry">
                        <mxPoint y="81" as="offset"/>
                    </mxGeometry>
                </mxCell>
                <mxCell id="MPKFLcAmijuVhZGKmEF--4" value="&lt;Titulo&gt;" style="text;whiteSpace=wrap;fontColor=#000000;verticalAlign=top;align=left;fontSize=15;spacing=16;spacingBottom=0;spacingTop=-12;resizeWidth=1;" vertex="1" parent="MPKFLcAmijuVhZGKmEF--3">
                    <mxGeometry width="552.0670391061453" height="60" relative="1" as="geometry"/>
                </mxCell>
                <mxCell id="MPKFLcAmijuVhZGKmEF--6" value="Detalles" style="whiteSpace=wrap;html=1;dashed=0;align=center;fontSize=12;shape=rect;fillColor=#2196F3;strokeColor=none;fontStyle=1;shadow=1;fontColor=#ffffff;" vertex="1" parent="MPKFLcAmijuVhZGKmEF--3">
                    <mxGeometry x="610" y="-1" width="200" height="101" as="geometry"/>
                </mxCell>
                <mxCell id="MPKFLcAmijuVhZGKmEF--7" value="" style="shape=rect;fillColor=#ffffff;strokeColor=#eeeeee;shadow=0;resizeWidth=1;whiteSpace=wrap;html=1;" vertex="1" parent="MPKFLcAmijuVhZGKmEF--2">
                    <mxGeometry width="810" height="103" relative="1" as="geometry">
                        <mxPoint y="184" as="offset"/>
                    </mxGeometry>
                </mxCell>
                <mxCell id="MPKFLcAmijuVhZGKmEF--8" value="Detalles" style="whiteSpace=wrap;html=1;dashed=0;align=center;fontSize=12;shape=rect;fillColor=#2196F3;strokeColor=none;fontStyle=1;shadow=1;fontColor=#ffffff;" vertex="1" parent="MPKFLcAmijuVhZGKmEF--7">
                    <mxGeometry x="610" y="-4" width="200" height="101" as="geometry"/>
                </mxCell>
                <mxCell id="MPKFLcAmijuVhZGKmEF--9" value="&lt;Titulo&gt;" style="text;whiteSpace=wrap;fontColor=#000000;verticalAlign=top;align=left;fontSize=15;spacing=16;spacingBottom=0;spacingTop=-12;resizeWidth=1;" vertex="1" parent="MPKFLcAmijuVhZGKmEF--7">
                    <mxGeometry y="5" width="552.0670391061453" height="60" as="geometry"/>
                </mxCell>
                <mxCell id="MPKFLcAmijuVhZGKmEF--11" value="" style="shape=rect;fillColor=#ffffff;strokeColor=#eeeeee;shadow=0;resizeWidth=1;whiteSpace=wrap;html=1;" vertex="1" parent="MPKFLcAmijuVhZGKmEF--2">
                    <mxGeometry width="810" height="104" relative="1" as="geometry">
                        <mxPoint y="287" as="offset"/>
                    </mxGeometry>
                </mxCell>
                <mxCell id="MPKFLcAmijuVhZGKmEF--12" value="Detalles" style="whiteSpace=wrap;html=1;dashed=0;align=center;fontSize=12;shape=rect;fillColor=#2196F3;strokeColor=none;fontStyle=1;shadow=1;fontColor=#ffffff;" vertex="1" parent="MPKFLcAmijuVhZGKmEF--11">
                    <mxGeometry x="610" width="200" height="104" as="geometry"/>
                </mxCell>
                <mxCell id="MPKFLcAmijuVhZGKmEF--13" value="&lt;Titulo&gt;" style="text;whiteSpace=wrap;fontColor=#000000;verticalAlign=top;align=left;fontSize=15;spacing=16;spacingBottom=0;spacingTop=-12;resizeWidth=1;" vertex="1" parent="MPKFLcAmijuVhZGKmEF--11">
                    <mxGeometry y="6" width="552.0670391061453" height="60" as="geometry"/>
                </mxCell>
                <mxCell id="MPKFLcAmijuVhZGKmEF--15" value="" style="shape=rect;fillColor=#ffffff;strokeColor=#eeeeee;shadow=0;resizeWidth=1;whiteSpace=wrap;html=1;" vertex="1" parent="MPKFLcAmijuVhZGKmEF--2">
                    <mxGeometry width="810" height="103" relative="1" as="geometry">
                        <mxPoint y="390" as="offset"/>
                    </mxGeometry>
                </mxCell>
                <mxCell id="MPKFLcAmijuVhZGKmEF--16" value="Detalles" style="whiteSpace=wrap;html=1;dashed=0;align=center;fontSize=12;shape=rect;fillColor=#2196F3;strokeColor=none;fontStyle=1;shadow=1;fontColor=#ffffff;" vertex="1" parent="MPKFLcAmijuVhZGKmEF--15">
                    <mxGeometry x="610" width="200" height="101" as="geometry"/>
                </mxCell>
                <mxCell id="MPKFLcAmijuVhZGKmEF--17" value="&lt;Titulo&gt;" style="text;whiteSpace=wrap;fontColor=#000000;verticalAlign=top;align=left;fontSize=15;spacing=16;spacingBottom=0;spacingTop=-12;resizeWidth=1;" vertex="1" parent="MPKFLcAmijuVhZGKmEF--15">
                    <mxGeometry width="552.0670391061453" height="60" as="geometry"/>
                </mxCell>
                <mxCell id="MPKFLcAmijuVhZGKmEF--19" value="" style="shape=rect;fillColor=#ffffff;strokeColor=#eeeeee;shadow=0;resizeWidth=1;whiteSpace=wrap;html=1;" vertex="1" parent="MPKFLcAmijuVhZGKmEF--2">
                    <mxGeometry width="810" height="101" relative="1" as="geometry">
                        <mxPoint y="493" as="offset"/>
                    </mxGeometry>
                </mxCell>
                <mxCell id="MPKFLcAmijuVhZGKmEF--20" value="Detalles" style="whiteSpace=wrap;html=1;dashed=0;align=center;fontSize=12;shape=rect;fillColor=#2196F3;strokeColor=none;fontStyle=1;shadow=1;fontColor=#ffffff;" vertex="1" parent="MPKFLcAmijuVhZGKmEF--19">
                    <mxGeometry x="610" y="-3" width="200" height="101" as="geometry"/>
                </mxCell>
                <mxCell id="MPKFLcAmijuVhZGKmEF--21" value="&lt;Titulo&gt;" style="text;whiteSpace=wrap;fontColor=#000000;verticalAlign=top;align=left;fontSize=15;spacing=16;spacingBottom=0;spacingTop=-12;resizeWidth=1;" vertex="1" parent="MPKFLcAmijuVhZGKmEF--19">
                    <mxGeometry y="6" width="552.0670391061453" height="60" as="geometry"/>
                </mxCell>
                <mxCell id="MPKFLcAmijuVhZGKmEF--23" value="" style="html=1;shadow=0;dashed=0;shape=mxgraph.bootstrap.rrect;rSize=5;fillColor=#E9ECEF;strokeColor=none;" vertex="1" parent="1">
                    <mxGeometry x="420" y="360" width="820" height="20" as="geometry"/>
                </mxCell>
                <mxCell id="MPKFLcAmijuVhZGKmEF--24" value="" style="html=1;shadow=0;dashed=0;shape=mxgraph.bootstrap.leftButton;rSize=5;fillColor=#0085FC;strokeColor=none;resizeHeight=1;" vertex="1" parent="MPKFLcAmijuVhZGKmEF--23">
                    <mxGeometry width="250" height="20" relative="1" as="geometry"/>
                </mxCell>
            </root>
        </mxGraphModel>
    </diagram>
    <diagram id="JAMrLwk5xlzBiZB1inF0" name="Medida-Detalle">
        <mxGraphModel dx="1729" dy="1137" grid="1" gridSize="10" guides="1" tooltips="1" connect="1" arrows="1" fold="1" page="1" pageScale="1" pageWidth="850" pageHeight="1100" math="0" shadow="0">
            <root>
                <mxCell id="0"/>
                <mxCell id="1" parent="0"/>
                <mxCell id="bKG3h_RzAS4UItfw9P7w-1" value="" style="verticalLabelPosition=bottom;verticalAlign=top;html=1;shadow=0;dashed=0;strokeWidth=1;shape=mxgraph.android.phone2;strokeColor=#006EAF;fillColor=#1ba1e2;fontColor=#ffffff;" vertex="1" parent="1">
                    <mxGeometry x="375" y="90" width="900" height="1800" as="geometry"/>
                </mxCell>
                <mxCell id="kt1ibI6FzjcdSx7D-Pp4-1" value="" style="shape=rect;fillColor=#BDBDBD;strokeColor=#BDBDBD;shadow=1;fontSize=14;" vertex="1" parent="1">
                    <mxGeometry x="420" y="400" width="810" height="830" as="geometry"/>
                </mxCell>
                <mxCell id="kt1ibI6FzjcdSx7D-Pp4-2" value="" style="shape=rect;strokeColor=none;whiteSpace=wrap;html=1;align=left;spacingLeft=16;fontColor=#666666;fontSize=14;" vertex="1" parent="kt1ibI6FzjcdSx7D-Pp4-1">
                    <mxGeometry y="562.0472440944882" width="810.0000000000001" height="267.9527559055118" as="geometry"/>
                </mxCell>
                <mxCell id="kt1ibI6FzjcdSx7D-Pp4-3" value="&lt;span style=&quot;color: rgb(0, 0, 0); font-family: Helvetica; font-style: normal; font-variant-ligatures: normal; font-variant-caps: normal; font-weight: 400; letter-spacing: normal; orphans: 2; text-align: left; text-indent: 0px; text-transform: none; widows: 2; word-spacing: 0px; -webkit-text-stroke-width: 0px; white-space: normal; background-color: rgb(251, 251, 251); text-decoration-thickness: initial; text-decoration-style: initial; text-decoration-color: initial; float: none; display: inline !important;&quot;&gt;&amp;lt;Titulo medida&amp;gt;&lt;/span&gt;" style="text;whiteSpace=wrap;html=1;fontSize=18;" vertex="1" parent="kt1ibI6FzjcdSx7D-Pp4-1">
                    <mxGeometry x="10" y="570" width="150" height="40" as="geometry"/>
                </mxCell>
                <mxCell id="kt1ibI6FzjcdSx7D-Pp4-5" value="&lt;span style=&quot;font-size: 13px;&quot;&gt;&amp;lt;Contenido (Pechurina con papa)&amp;gt;&lt;br&gt;&lt;br&gt;&lt;/span&gt;&lt;div&gt;&lt;span style=&quot;font-size: 13px;&quot;&gt;&lt;br&gt;&lt;/span&gt;&lt;/div&gt;" style="text;whiteSpace=wrap;html=1;" vertex="1" parent="kt1ibI6FzjcdSx7D-Pp4-1">
                    <mxGeometry x="10" y="670" width="780" height="150" as="geometry"/>
                </mxCell>
                <mxCell id="kt1ibI6FzjcdSx7D-Pp4-6" value="" style="html=1;shadow=0;dashed=0;shape=mxgraph.bootstrap.rrect;rSize=5;fillColor=#E9ECEF;strokeColor=none;" vertex="1" parent="1">
                    <mxGeometry x="420" y="360" width="820" height="20" as="geometry"/>
                </mxCell>
                <mxCell id="kt1ibI6FzjcdSx7D-Pp4-7" value="" style="html=1;shadow=0;dashed=0;shape=mxgraph.bootstrap.leftButton;rSize=5;fillColor=#0085FC;strokeColor=none;resizeHeight=1;" vertex="1" parent="kt1ibI6FzjcdSx7D-Pp4-6">
                    <mxGeometry width="250" height="20" relative="1" as="geometry"/>
                </mxCell>
                <mxCell id="sjbWyhjBpsIP05vCXZiS-1" value="Medida Detalle" style="dashed=0;align=center;fontSize=30;shape=rect;fillColor=#0050ef;strokeColor=#001DBC;shadow=0;hachureGap=4;pointerEvents=0;fontFamily=Helvetica;fontColor=#ffffff;" vertex="1" parent="1">
                    <mxGeometry x="405" y="250" width="840" height="110" as="geometry"/>
                </mxCell>
            </root>
        </mxGraphModel>
    </diagram>
    <diagram id="9iy3kzlVeyiO1e56DfWb" name="Servicios - Vista">
        <mxGraphModel dx="1862" dy="1225" grid="1" gridSize="10" guides="1" tooltips="1" connect="1" arrows="1" fold="1" page="1" pageScale="1" pageWidth="850" pageHeight="1100" math="0" shadow="0">
            <root>
                <mxCell id="0"/>
                <mxCell id="1" parent="0"/>
                <mxCell id="a8wk1XCfIej3RtsQck18-1" value="" style="verticalLabelPosition=bottom;verticalAlign=top;html=1;shadow=0;dashed=0;strokeWidth=1;shape=mxgraph.android.phone2;strokeColor=#006EAF;fillColor=#1ba1e2;fontColor=#ffffff;" vertex="1" parent="1">
                    <mxGeometry x="375" y="90" width="900" height="1800" as="geometry"/>
                </mxCell>
                <mxCell id="a8wk1XCfIej3RtsQck18-2" value="Servicios" style="dashed=0;align=center;fontSize=30;shape=rect;fillColor=#0050ef;strokeColor=#001DBC;shadow=0;hachureGap=4;pointerEvents=0;fontFamily=Helvetica;fontColor=#ffffff;" vertex="1" parent="1">
                    <mxGeometry x="405" y="250" width="840" height="110" as="geometry"/>
                </mxCell>
                <mxCell id="a8wk1XCfIej3RtsQck18-3" value="" style="html=1;shadow=0;dashed=0;shape=mxgraph.bootstrap.rrect;rSize=5;fillColor=#E9ECEF;strokeColor=none;" vertex="1" parent="1">
                    <mxGeometry x="420" y="360" width="820" height="20" as="geometry"/>
                </mxCell>
                <mxCell id="a8wk1XCfIej3RtsQck18-4" value="" style="html=1;shadow=0;dashed=0;shape=mxgraph.bootstrap.leftButton;rSize=5;fillColor=#0085FC;strokeColor=none;resizeHeight=1;" vertex="1" parent="a8wk1XCfIej3RtsQck18-3">
                    <mxGeometry width="250" height="20" relative="1" as="geometry"/>
                </mxCell>
                <mxCell id="a8wk1XCfIej3RtsQck18-5" value="" style="dashed=0;shape=rect;fillColor=#ffffff;strokeColor=none;" vertex="1" parent="1">
                    <mxGeometry x="420" y="380" width="810" height="1340" as="geometry"/>
                </mxCell>
                <mxCell id="a8wk1XCfIej3RtsQck18-6" value="" style="shape=rect;fillColor=#ffffff;strokeColor=#eeeeee;shadow=0;resizeWidth=1;whiteSpace=wrap;html=1;" vertex="1" parent="a8wk1XCfIej3RtsQck18-5">
                    <mxGeometry width="810" height="103" relative="1" as="geometry">
                        <mxPoint y="81" as="offset"/>
                    </mxGeometry>
                </mxCell>
                <mxCell id="a8wk1XCfIej3RtsQck18-7" value="&lt;Nombre&gt;&#xa;&#xa;&lt;Descripcion Abreviada&gt;" style="text;whiteSpace=wrap;fontColor=#000000;verticalAlign=top;align=left;fontSize=15;spacing=16;spacingBottom=0;spacingTop=-12;resizeWidth=1;" vertex="1" parent="a8wk1XCfIej3RtsQck18-6">
                    <mxGeometry width="552.0670391061453" height="60" relative="1" as="geometry"/>
                </mxCell>
                <mxCell id="a8wk1XCfIej3RtsQck18-8" value="Imagen" style="whiteSpace=wrap;html=1;dashed=0;align=center;fontSize=12;shape=rect;fillColor=#647687;strokeColor=#314354;fontStyle=1;shadow=1;fontColor=#ffffff;" vertex="1" parent="a8wk1XCfIej3RtsQck18-6">
                    <mxGeometry x="610" y="-1" width="200" height="101" as="geometry"/>
                </mxCell>
                <mxCell id="a8wk1XCfIej3RtsQck18-34" value="" style="shape=ellipse;dashed=0;strokeColor=#BD7000;shadow=1;fontSize=13;align=center;verticalAlign=top;labelPosition=center;verticalLabelPosition=bottom;html=1;aspect=fixed;fillColor=#f0a30a;fontColor=#000000;" vertex="1" parent="a8wk1XCfIej3RtsQck18-6">
                    <mxGeometry x="520" y="22" width="56" height="56" as="geometry"/>
                </mxCell>
                <mxCell id="a8wk1XCfIej3RtsQck18-35" value="" style="dashed=0;html=1;shape=mxgraph.gmdl.reply;strokeColor=none;fillColor=#737373;shadow=0;sketch=0;html=1;labelPosition=center;verticalLabelPosition=bottom;align=center;verticalAlign=top;" vertex="1" parent="a8wk1XCfIej3RtsQck18-34">
                    <mxGeometry x="18" y="19" width="20" height="18" as="geometry"/>
                </mxCell>
                <mxCell id="a8wk1XCfIej3RtsQck18-23" value="" style="shape=rect;fillColor=#ffffff;strokeColor=#eeeeee;shadow=0;resizeWidth=1;whiteSpace=wrap;html=1;" vertex="1" parent="a8wk1XCfIej3RtsQck18-5">
                    <mxGeometry y="181" width="810" height="103" as="geometry"/>
                </mxCell>
                <mxCell id="a8wk1XCfIej3RtsQck18-24" value="&lt;Nombre&gt;&#xa;&#xa;&lt;Descripcion Abreviada&gt;" style="text;whiteSpace=wrap;fontColor=#000000;verticalAlign=top;align=left;fontSize=15;spacing=16;spacingBottom=0;spacingTop=-12;resizeWidth=1;" vertex="1" parent="a8wk1XCfIej3RtsQck18-23">
                    <mxGeometry width="552.0670391061453" height="60" relative="1" as="geometry"/>
                </mxCell>
                <mxCell id="a8wk1XCfIej3RtsQck18-25" value="Imagen" style="whiteSpace=wrap;html=1;dashed=0;align=center;fontSize=12;shape=rect;fillColor=#647687;strokeColor=#314354;fontStyle=1;shadow=1;fontColor=#ffffff;" vertex="1" parent="a8wk1XCfIej3RtsQck18-23">
                    <mxGeometry x="610" y="-1" width="200" height="101" as="geometry"/>
                </mxCell>
                <mxCell id="a8wk1XCfIej3RtsQck18-36" value="" style="shape=ellipse;dashed=0;strokeColor=#BD7000;shadow=1;fontSize=13;align=center;verticalAlign=top;labelPosition=center;verticalLabelPosition=bottom;html=1;aspect=fixed;fillColor=#f0a30a;fontColor=#000000;" vertex="1" parent="a8wk1XCfIej3RtsQck18-23">
                    <mxGeometry x="520" y="23.5" width="56" height="56" as="geometry"/>
                </mxCell>
                <mxCell id="a8wk1XCfIej3RtsQck18-37" value="" style="dashed=0;html=1;shape=mxgraph.gmdl.reply;strokeColor=none;fillColor=#737373;shadow=0;sketch=0;html=1;labelPosition=center;verticalLabelPosition=bottom;align=center;verticalAlign=top;" vertex="1" parent="a8wk1XCfIej3RtsQck18-36">
                    <mxGeometry x="18" y="19" width="20" height="18" as="geometry"/>
                </mxCell>
                <mxCell id="a8wk1XCfIej3RtsQck18-26" value="" style="shape=rect;fillColor=#ffffff;strokeColor=#eeeeee;shadow=0;resizeWidth=1;whiteSpace=wrap;html=1;" vertex="1" parent="a8wk1XCfIej3RtsQck18-5">
                    <mxGeometry y="284" width="810" height="103" as="geometry"/>
                </mxCell>
                <mxCell id="a8wk1XCfIej3RtsQck18-27" value="&lt;Nombre&gt;&#xa;&#xa;&lt;Descripcion Abreviada&gt;" style="text;whiteSpace=wrap;fontColor=#000000;verticalAlign=top;align=left;fontSize=15;spacing=16;spacingBottom=0;spacingTop=-12;resizeWidth=1;" vertex="1" parent="a8wk1XCfIej3RtsQck18-26">
                    <mxGeometry width="552.0670391061453" height="60" relative="1" as="geometry"/>
                </mxCell>
                <mxCell id="a8wk1XCfIej3RtsQck18-28" value="Imagen" style="whiteSpace=wrap;html=1;dashed=0;align=center;fontSize=12;shape=rect;fillColor=#647687;strokeColor=#314354;fontStyle=1;shadow=1;fontColor=#ffffff;" vertex="1" parent="a8wk1XCfIej3RtsQck18-26">
                    <mxGeometry x="610" y="-1" width="200" height="101" as="geometry"/>
                </mxCell>
                <mxCell id="a8wk1XCfIej3RtsQck18-38" value="" style="shape=ellipse;dashed=0;strokeColor=#BD7000;shadow=1;fontSize=13;align=center;verticalAlign=top;labelPosition=center;verticalLabelPosition=bottom;html=1;aspect=fixed;fillColor=#f0a30a;fontColor=#000000;" vertex="1" parent="a8wk1XCfIej3RtsQck18-26">
                    <mxGeometry x="520" y="23.5" width="56" height="56" as="geometry"/>
                </mxCell>
                <mxCell id="a8wk1XCfIej3RtsQck18-39" value="" style="dashed=0;html=1;shape=mxgraph.gmdl.reply;strokeColor=none;fillColor=#737373;shadow=0;sketch=0;html=1;labelPosition=center;verticalLabelPosition=bottom;align=center;verticalAlign=top;" vertex="1" parent="a8wk1XCfIej3RtsQck18-38">
                    <mxGeometry x="18" y="19" width="20" height="18" as="geometry"/>
                </mxCell>
                <mxCell id="a8wk1XCfIej3RtsQck18-29" value="" style="shape=rect;fillColor=#ffffff;strokeColor=#eeeeee;shadow=0;resizeWidth=1;whiteSpace=wrap;html=1;" vertex="1" parent="a8wk1XCfIej3RtsQck18-5">
                    <mxGeometry y="380" width="810" height="103" as="geometry"/>
                </mxCell>
                <mxCell id="a8wk1XCfIej3RtsQck18-30" value="&lt;Nombre&gt;&#xa;&#xa;&lt;Descripcion Abreviada&gt;" style="text;whiteSpace=wrap;fontColor=#000000;verticalAlign=top;align=left;fontSize=15;spacing=16;spacingBottom=0;spacingTop=-12;resizeWidth=1;" vertex="1" parent="a8wk1XCfIej3RtsQck18-29">
                    <mxGeometry width="552.0670391061453" height="60" relative="1" as="geometry"/>
                </mxCell>
                <mxCell id="a8wk1XCfIej3RtsQck18-31" value="Imagen" style="whiteSpace=wrap;html=1;dashed=0;align=center;fontSize=12;shape=rect;fillColor=#647687;strokeColor=#314354;fontStyle=1;shadow=1;fontColor=#ffffff;" vertex="1" parent="a8wk1XCfIej3RtsQck18-29">
                    <mxGeometry x="610" y="-1" width="200" height="101" as="geometry"/>
                </mxCell>
                <mxCell id="a8wk1XCfIej3RtsQck18-40" value="" style="shape=ellipse;dashed=0;strokeColor=#BD7000;shadow=1;fontSize=13;align=center;verticalAlign=top;labelPosition=center;verticalLabelPosition=bottom;html=1;aspect=fixed;fillColor=#f0a30a;fontColor=#000000;" vertex="1" parent="a8wk1XCfIej3RtsQck18-29">
                    <mxGeometry x="520" y="23.5" width="56" height="56" as="geometry"/>
                </mxCell>
                <mxCell id="a8wk1XCfIej3RtsQck18-41" value="" style="dashed=0;html=1;shape=mxgraph.gmdl.reply;strokeColor=none;fillColor=#737373;shadow=0;sketch=0;html=1;labelPosition=center;verticalLabelPosition=bottom;align=center;verticalAlign=top;" vertex="1" parent="a8wk1XCfIej3RtsQck18-40">
                    <mxGeometry x="18" y="19" width="20" height="18" as="geometry"/>
                </mxCell>
                <mxCell id="a8wk1XCfIej3RtsQck18-21" value="" style="html=1;shadow=0;dashed=0;shape=mxgraph.bootstrap.rrect;rSize=5;fillColor=#E9ECEF;strokeColor=none;" vertex="1" parent="1">
                    <mxGeometry x="420" y="360" width="820" height="20" as="geometry"/>
                </mxCell>
                <mxCell id="a8wk1XCfIej3RtsQck18-22" value="" style="html=1;shadow=0;dashed=0;shape=mxgraph.bootstrap.leftButton;rSize=5;fillColor=#0085FC;strokeColor=none;resizeHeight=1;" vertex="1" parent="a8wk1XCfIej3RtsQck18-21">
                    <mxGeometry width="250" height="20" relative="1" as="geometry"/>
                </mxCell>
            </root>
        </mxGraphModel>
    </diagram>
    <diagram id="k3-Gm2o-bV-iXqaIMXdW" name="Acerca-de">
        <mxGraphModel dx="2200" dy="1447" grid="1" gridSize="10" guides="1" tooltips="1" connect="1" arrows="1" fold="1" page="1" pageScale="1" pageWidth="850" pageHeight="1100" math="0" shadow="0">
            <root>
                <mxCell id="0"/>
                <mxCell id="1" parent="0"/>
                <mxCell id="WGJw4migemsAvx8UvwXi-1" value="" style="verticalLabelPosition=bottom;verticalAlign=top;html=1;shadow=0;dashed=0;strokeWidth=1;shape=mxgraph.android.phone2;strokeColor=#006EAF;fillColor=#1ba1e2;fontColor=#ffffff;" vertex="1" parent="1">
                    <mxGeometry x="375" y="90" width="900" height="1800" as="geometry"/>
                </mxCell>
                <mxCell id="D9Xm929Gkekl3_rbhpCX-1" value="" style="html=1;shadow=0;dashed=0;shape=mxgraph.bootstrap.rrect;rSize=5;fillColor=#E9ECEF;strokeColor=none;" vertex="1" parent="1">
                    <mxGeometry x="420" y="360" width="820" height="20" as="geometry"/>
                </mxCell>
                <mxCell id="D9Xm929Gkekl3_rbhpCX-2" value="" style="html=1;shadow=0;dashed=0;shape=mxgraph.bootstrap.leftButton;rSize=5;fillColor=#0085FC;strokeColor=none;resizeHeight=1;" vertex="1" parent="D9Xm929Gkekl3_rbhpCX-1">
                    <mxGeometry width="250" height="20" relative="1" as="geometry"/>
                </mxCell>
                <mxCell id="D9Xm929Gkekl3_rbhpCX-3" value="Acerca de" style="dashed=0;align=center;fontSize=30;shape=rect;fillColor=#0050ef;strokeColor=#001DBC;shadow=0;hachureGap=4;pointerEvents=0;fontFamily=Helvetica;fontColor=#ffffff;" vertex="1" parent="1">
                    <mxGeometry x="410" y="250" width="835" height="110" as="geometry"/>
                </mxCell>
                <mxCell id="D9Xm929Gkekl3_rbhpCX-4" value="&amp;lt;Nombre&amp;gt;" style="text;fontSize=16;align=left;verticalAlign=top;spacingTop=57;resizeWidth=1;spacingLeft=72;resizeWidth=1;strokeColor=#eeeeee;whiteSpace=wrap;html=1;" vertex="1" parent="1">
                    <mxGeometry x="422.5" y="390" width="810" height="136" as="geometry"/>
                </mxCell>
                <mxCell id="D9Xm929Gkekl3_rbhpCX-5" value="" style="dashed=0;shape=mxgraph.gmdl.user;strokeColor=none;fillColor=#808080;" vertex="1" parent="D9Xm929Gkekl3_rbhpCX-4">
                    <mxGeometry width="40" height="40" relative="1" as="geometry">
                        <mxPoint x="16" y="64" as="offset"/>
                    </mxGeometry>
                </mxCell>
                <mxCell id="D9Xm929Gkekl3_rbhpCX-6" value="&lt;font color=&quot;#ededed&quot;&gt;&lt;span style=&quot;font-size: 14px;&quot;&gt;&amp;lt;Cargo&amp;gt;&lt;/span&gt;&lt;/font&gt;" style="text;fontSize=13;verticalAlign=middle;spacingLeft=72;whiteSpace=wrap;fontColor=#666666;html=1;spacingRight=14;resizeWidth=1;" vertex="1" parent="D9Xm929Gkekl3_rbhpCX-4">
                    <mxGeometry width="810" height="66" relative="1" as="geometry">
                        <mxPoint y="70" as="offset"/>
                    </mxGeometry>
                </mxCell>
                <mxCell id="D9Xm929Gkekl3_rbhpCX-7" value="&amp;lt;Nombre&amp;gt;" style="text;fontSize=16;align=left;verticalAlign=top;spacing=16;spacingTop=-6;html=1;spacingLeft=56;resizeWidth=1;strokeColor=#eeeeee;whiteSpace=wrap;" vertex="1" parent="1">
                    <mxGeometry x="425.5" y="530" width="810" height="86" as="geometry"/>
                </mxCell>
                <mxCell id="D9Xm929Gkekl3_rbhpCX-8" value="" style="dashed=0;shape=mxgraph.gmdl.user;strokeColor=none;fillColor=#808080;" vertex="1" parent="D9Xm929Gkekl3_rbhpCX-7">
                    <mxGeometry width="40" height="40" relative="1" as="geometry">
                        <mxPoint x="16" y="13" as="offset"/>
                    </mxGeometry>
                </mxCell>
                <mxCell id="D9Xm929Gkekl3_rbhpCX-9" value="&lt;font color=&quot;#ededed&quot;&gt;&lt;span style=&quot;font-size: 14px;&quot;&gt;&amp;lt;Cargo&amp;gt;&lt;/span&gt;&lt;/font&gt;" style="text;fontSize=13;verticalAlign=top;whiteSpace=wrap;spacingRight=16;fontColor=#666666;html=1;resizeWidth=1;spacingLeft=72;spacingTop=2;" vertex="1" parent="D9Xm929Gkekl3_rbhpCX-7">
                    <mxGeometry width="810" height="66" relative="1" as="geometry">
                        <mxPoint y="30" as="offset"/>
                    </mxGeometry>
                </mxCell>
                <mxCell id="D9Xm929Gkekl3_rbhpCX-10" value="&amp;lt;Nombre&amp;gt;" style="text;fontSize=16;align=left;verticalAlign=top;spacing=16;spacingTop=-6;html=1;spacingLeft=56;resizeWidth=1;strokeColor=#eeeeee;whiteSpace=wrap;" vertex="1" parent="1">
                    <mxGeometry x="425.5" y="620" width="810" height="86" as="geometry"/>
                </mxCell>
                <mxCell id="D9Xm929Gkekl3_rbhpCX-11" value="" style="dashed=0;shape=mxgraph.gmdl.user;strokeColor=none;fillColor=#808080;" vertex="1" parent="D9Xm929Gkekl3_rbhpCX-10">
                    <mxGeometry width="40" height="40" relative="1" as="geometry">
                        <mxPoint x="16" y="13" as="offset"/>
                    </mxGeometry>
                </mxCell>
                <mxCell id="D9Xm929Gkekl3_rbhpCX-12" value="&lt;font color=&quot;#ededed&quot;&gt;&lt;span style=&quot;font-size: 14px;&quot;&gt;&amp;lt;Cargo&amp;gt;&lt;/span&gt;&lt;/font&gt;" style="text;fontSize=13;verticalAlign=top;whiteSpace=wrap;spacingRight=16;fontColor=#666666;html=1;resizeWidth=1;spacingLeft=72;spacingTop=2;" vertex="1" parent="D9Xm929Gkekl3_rbhpCX-10">
                    <mxGeometry width="810" height="66" relative="1" as="geometry">
                        <mxPoint y="30" as="offset"/>
                    </mxGeometry>
                </mxCell>
                <mxCell id="D9Xm929Gkekl3_rbhpCX-13" value="&amp;lt;Nombre&amp;gt;" style="text;fontSize=16;align=left;verticalAlign=top;spacing=16;spacingTop=-6;html=1;spacingLeft=56;resizeWidth=1;strokeColor=#eeeeee;whiteSpace=wrap;" vertex="1" parent="1">
                    <mxGeometry x="425.5" y="710" width="810" height="86" as="geometry"/>
                </mxCell>
                <mxCell id="D9Xm929Gkekl3_rbhpCX-14" value="" style="dashed=0;shape=mxgraph.gmdl.user;strokeColor=none;fillColor=#808080;" vertex="1" parent="D9Xm929Gkekl3_rbhpCX-13">
                    <mxGeometry width="40" height="40" relative="1" as="geometry">
                        <mxPoint x="16" y="13" as="offset"/>
                    </mxGeometry>
                </mxCell>
                <mxCell id="D9Xm929Gkekl3_rbhpCX-15" value="&lt;span style=&quot;font-size: 14px;&quot;&gt;&amp;lt;Cargo&amp;gt;&lt;/span&gt;" style="text;fontSize=13;verticalAlign=top;whiteSpace=wrap;spacingRight=16;fontColor=#666666;html=1;resizeWidth=1;spacingLeft=72;spacingTop=2;" vertex="1" parent="D9Xm929Gkekl3_rbhpCX-13">
                    <mxGeometry width="810" height="66" relative="1" as="geometry">
                        <mxPoint y="30" as="offset"/>
                    </mxGeometry>
                </mxCell>
                <mxCell id="D9Xm929Gkekl3_rbhpCX-16" value="&amp;lt;Nombre&amp;gt;" style="text;fontSize=16;align=left;verticalAlign=top;spacing=16;spacingTop=-6;html=1;spacingLeft=56;resizeWidth=1;strokeColor=#eeeeee;whiteSpace=wrap;" vertex="1" parent="1">
                    <mxGeometry x="422.5" y="800" width="810" height="86" as="geometry"/>
                </mxCell>
                <mxCell id="D9Xm929Gkekl3_rbhpCX-17" value="" style="dashed=0;shape=mxgraph.gmdl.user;strokeColor=none;fillColor=#808080;" vertex="1" parent="D9Xm929Gkekl3_rbhpCX-16">
                    <mxGeometry width="40" height="40" relative="1" as="geometry">
                        <mxPoint x="16" y="13" as="offset"/>
                    </mxGeometry>
                </mxCell>
                <mxCell id="D9Xm929Gkekl3_rbhpCX-18" value="&lt;font color=&quot;#ededed&quot;&gt;&lt;span style=&quot;font-size: 14px;&quot;&gt;&amp;lt;Cargo&amp;gt;&lt;/span&gt;&lt;/font&gt;" style="text;fontSize=13;verticalAlign=top;whiteSpace=wrap;spacingRight=16;fontColor=#666666;html=1;resizeWidth=1;spacingLeft=72;spacingTop=2;" vertex="1" parent="D9Xm929Gkekl3_rbhpCX-16">
                    <mxGeometry width="810" height="66" relative="1" as="geometry">
                        <mxPoint y="30" as="offset"/>
                    </mxGeometry>
                </mxCell>
                <mxCell id="D9Xm929Gkekl3_rbhpCX-19" value="&amp;lt;Nombre&amp;gt;" style="text;fontSize=16;align=left;verticalAlign=top;spacing=16;spacingTop=-6;html=1;spacingLeft=56;resizeWidth=1;strokeColor=#eeeeee;whiteSpace=wrap;" vertex="1" parent="1">
                    <mxGeometry x="422.5" y="890" width="810" height="96" as="geometry"/>
                </mxCell>
                <mxCell id="D9Xm929Gkekl3_rbhpCX-20" value="" style="dashed=0;shape=mxgraph.gmdl.user;strokeColor=none;fillColor=#808080;" vertex="1" parent="D9Xm929Gkekl3_rbhpCX-19">
                    <mxGeometry width="40" height="40" relative="1" as="geometry">
                        <mxPoint x="16" y="13" as="offset"/>
                    </mxGeometry>
                </mxCell>
                <mxCell id="D9Xm929Gkekl3_rbhpCX-21" value="&lt;font color=&quot;#ededed&quot;&gt;&lt;span style=&quot;font-size: 14px;&quot;&gt;&amp;lt;Cargo&amp;gt;&lt;/span&gt;&lt;/font&gt;" style="text;fontSize=13;verticalAlign=top;whiteSpace=wrap;spacingRight=16;fontColor=#666666;html=1;resizeWidth=1;spacingLeft=72;spacingTop=2;" vertex="1" parent="D9Xm929Gkekl3_rbhpCX-19">
                    <mxGeometry x="-2.5" y="30" width="810" height="66" as="geometry"/>
                </mxCell>
                <mxCell id="lSWc-NMKMJEqIfSJ6pOQ-1" value="" style="dashed=0;shape=rect;fillColor=#ffffff;strokeColor=none;" vertex="1" parent="1">
                    <mxGeometry x="422.5" y="390" width="810" height="1330" as="geometry"/>
                </mxCell>
                <mxCell id="lSWc-NMKMJEqIfSJ6pOQ-2" value="&amp;lt;Nombre&amp;gt;" style="text;fontSize=16;align=left;verticalAlign=top;spacingTop=57;resizeWidth=1;spacingLeft=72;resizeWidth=1;strokeColor=#eeeeee;whiteSpace=wrap;html=1;" vertex="1" parent="lSWc-NMKMJEqIfSJ6pOQ-1">
                    <mxGeometry width="810" height="136" relative="1" as="geometry">
                        <mxPoint as="offset"/>
                    </mxGeometry>
                </mxCell>
                <mxCell id="lSWc-NMKMJEqIfSJ6pOQ-3" value="" style="dashed=0;shape=mxgraph.gmdl.user;strokeColor=none;fillColor=#808080;" vertex="1" parent="lSWc-NMKMJEqIfSJ6pOQ-2">
                    <mxGeometry width="40" height="40" relative="1" as="geometry">
                        <mxPoint x="16" y="64" as="offset"/>
                    </mxGeometry>
                </mxCell>
                <mxCell id="lSWc-NMKMJEqIfSJ6pOQ-4" value="&lt;font color=&quot;#ededed&quot;&gt;&lt;span style=&quot;font-size: 14px;&quot;&gt;&amp;lt;Telefono&amp;gt;&lt;br&gt;&amp;lt;Link a telegram&amp;gt;&lt;/span&gt;&lt;/font&gt;" style="text;fontSize=13;verticalAlign=middle;spacingLeft=72;whiteSpace=wrap;fontColor=#666666;html=1;spacingRight=14;resizeWidth=1;" vertex="1" parent="lSWc-NMKMJEqIfSJ6pOQ-2">
                    <mxGeometry width="810" height="66" relative="1" as="geometry">
                        <mxPoint y="70" as="offset"/>
                    </mxGeometry>
                </mxCell>
                <mxCell id="lSWc-NMKMJEqIfSJ6pOQ-5" value="&amp;lt;Nombre&amp;gt;" style="text;fontSize=16;align=left;verticalAlign=top;spacing=16;spacingTop=-6;html=1;spacingLeft=56;resizeWidth=1;strokeColor=#eeeeee;whiteSpace=wrap;" vertex="1" parent="lSWc-NMKMJEqIfSJ6pOQ-1">
                    <mxGeometry width="810" height="86" relative="1" as="geometry">
                        <mxPoint x="3" y="140" as="offset"/>
                    </mxGeometry>
                </mxCell>
                <mxCell id="lSWc-NMKMJEqIfSJ6pOQ-6" value="" style="dashed=0;shape=mxgraph.gmdl.user;strokeColor=none;fillColor=#808080;" vertex="1" parent="lSWc-NMKMJEqIfSJ6pOQ-5">
                    <mxGeometry width="40" height="40" relative="1" as="geometry">
                        <mxPoint x="16" y="13" as="offset"/>
                    </mxGeometry>
                </mxCell>
                <mxCell id="lSWc-NMKMJEqIfSJ6pOQ-7" value="&lt;font color=&quot;#ededed&quot;&gt;&lt;span style=&quot;font-size: 14px;&quot;&gt;&amp;lt;Telefono&amp;gt;&lt;br&gt;&amp;lt;Link a telegram&amp;gt;&lt;br&gt;&lt;br&gt;&lt;/span&gt;&lt;/font&gt;" style="text;fontSize=13;verticalAlign=top;whiteSpace=wrap;spacingRight=16;fontColor=#666666;html=1;resizeWidth=1;spacingLeft=72;spacingTop=2;" vertex="1" parent="lSWc-NMKMJEqIfSJ6pOQ-5">
                    <mxGeometry width="810" height="66" relative="1" as="geometry">
                        <mxPoint y="30" as="offset"/>
                    </mxGeometry>
                </mxCell>
                <mxCell id="lSWc-NMKMJEqIfSJ6pOQ-8" value="&amp;lt;Nombre&amp;gt;" style="text;fontSize=16;align=left;verticalAlign=top;spacing=16;spacingTop=-6;html=1;spacingLeft=56;resizeWidth=1;strokeColor=#eeeeee;whiteSpace=wrap;" vertex="1" parent="lSWc-NMKMJEqIfSJ6pOQ-1">
                    <mxGeometry width="810" height="86" relative="1" as="geometry">
                        <mxPoint x="3" y="230" as="offset"/>
                    </mxGeometry>
                </mxCell>
                <mxCell id="lSWc-NMKMJEqIfSJ6pOQ-9" value="" style="dashed=0;shape=mxgraph.gmdl.user;strokeColor=none;fillColor=#808080;" vertex="1" parent="lSWc-NMKMJEqIfSJ6pOQ-8">
                    <mxGeometry width="40" height="40" relative="1" as="geometry">
                        <mxPoint x="16" y="13" as="offset"/>
                    </mxGeometry>
                </mxCell>
                <mxCell id="lSWc-NMKMJEqIfSJ6pOQ-10" value="&lt;font color=&quot;#ededed&quot;&gt;&lt;span style=&quot;font-size: 14px;&quot;&gt;&amp;lt;Telefono&amp;gt;&lt;br&gt;&amp;lt;Link a telegram&amp;gt;&lt;/span&gt;&lt;/font&gt;" style="text;fontSize=13;verticalAlign=top;whiteSpace=wrap;spacingRight=16;fontColor=#666666;html=1;resizeWidth=1;spacingLeft=72;spacingTop=2;" vertex="1" parent="lSWc-NMKMJEqIfSJ6pOQ-8">
                    <mxGeometry width="810" height="66" relative="1" as="geometry">
                        <mxPoint y="30" as="offset"/>
                    </mxGeometry>
                </mxCell>
            </root>
        </mxGraphModel>
    </diagram>
    <diagram id="dFU_DqDsYgOz-rngT-AP" name="Registro">
        <mxGraphModel dx="3457" dy="2274" grid="1" gridSize="10" guides="1" tooltips="1" connect="1" arrows="1" fold="1" page="1" pageScale="1" pageWidth="850" pageHeight="1100" math="0" shadow="0">
            <root>
                <mxCell id="0"/>
                <mxCell id="1" parent="0"/>
                <mxCell id="EsNvN7nvhZt56u7ZNfa--1" value="" style="verticalLabelPosition=bottom;verticalAlign=top;html=1;shadow=0;dashed=0;strokeWidth=1;shape=mxgraph.android.phone2;strokeColor=#006EAF;fillColor=#1ba1e2;fontColor=#ffffff;" vertex="1" parent="1">
                    <mxGeometry x="375" y="90" width="900" height="1800" as="geometry"/>
                </mxCell>
                <mxCell id="EsNvN7nvhZt56u7ZNfa--4" value="Registro" style="dashed=0;align=center;fontSize=30;shape=rect;fillColor=#0050ef;strokeColor=#001DBC;shadow=0;hachureGap=4;pointerEvents=0;fontFamily=Helvetica;fontColor=#ffffff;" vertex="1" parent="1">
                    <mxGeometry x="410" y="250" width="835" height="110" as="geometry"/>
                </mxCell>
                <mxCell id="UcI6-7jPRnleGMnpSdM7-3" value="" style="rounded=0;whiteSpace=wrap;html=1;rotation=90;" vertex="1" parent="1">
                    <mxGeometry x="142.2" y="623.45" width="1371.25" height="834.37" as="geometry"/>
                </mxCell>
                <mxCell id="CA8ZLk4sHLLU1YdrZFjf-2" value="" style="shape=link;html=1;width=285;fillColor=#dae8fc;strokeColor=#6c8ebf;entryX=0.507;entryY=0.138;entryDx=0;entryDy=0;entryPerimeter=0;" edge="1" parent="1">
                    <mxGeometry width="100" relative="1" as="geometry">
                        <mxPoint x="615.0699999999999" y="800" as="sourcePoint"/>
                        <mxPoint x="1034.9369400000003" y="800.2337499999994" as="targetPoint"/>
                    </mxGeometry>
                </mxCell>
                <mxCell id="CA8ZLk4sHLLU1YdrZFjf-3" value="" style="shape=link;html=1;width=265;fillColor=#dae8fc;strokeColor=#6c8ebf;" edge="1" parent="1">
                    <mxGeometry width="100" relative="1" as="geometry">
                        <mxPoint x="619.9999999999999" y="940" as="sourcePoint"/>
                        <mxPoint x="1030" y="940" as="targetPoint"/>
                    </mxGeometry>
                </mxCell>
            </root>
        </mxGraphModel>
    </diagram>
    <diagram id="wXSjuCMJD2xvUYw79q6x" name="Login">
        <mxGraphModel dx="1323" dy="796" grid="1" gridSize="10" guides="1" tooltips="1" connect="1" arrows="1" fold="1" page="1" pageScale="1" pageWidth="850" pageHeight="1100" math="0" shadow="0">
            <root>
                <mxCell id="0"/>
                <mxCell id="1" parent="0"/>
                <mxCell id="Q2_rUb_3lou46noNSS1H-1" value="" style="dashed=0;shape=rect;fillColor=#ffffff;strokeColor=none;" parent="1" vertex="1">
                    <mxGeometry x="410" y="360" width="860" height="1410" as="geometry"/>
                </mxCell>
                <mxCell id="Ht1dvpPinhHXgtXFtauK-1" value="" style="verticalLabelPosition=bottom;verticalAlign=top;html=1;shadow=0;dashed=0;strokeWidth=1;shape=mxgraph.android.phone2;strokeColor=#006EAF;fillColor=#1ba1e2;fontColor=#ffffff;" parent="1" vertex="1">
                    <mxGeometry x="375" y="90" width="900" height="1800" as="geometry"/>
                </mxCell>
                <mxCell id="Ii77mYU-GOD1TPvs0e9H-5" value="" style="group;fontSize=18;" parent="1" vertex="1" connectable="0">
                    <mxGeometry x="470" y="850" width="730" height="35" as="geometry"/>
                </mxCell>
                <mxCell id="Ht1dvpPinhHXgtXFtauK-33" value="&lt;font style=&quot;font-size: 30px;&quot;&gt;Cedula&lt;/font&gt;" style="text;fontSize=16;verticalAlign=middle;strokeColor=none;fillColor=none;whiteSpace=wrap;html=1;" parent="Ii77mYU-GOD1TPvs0e9H-5" vertex="1">
                    <mxGeometry width="700" height="30" as="geometry"/>
                </mxCell>
                <mxCell id="Ht1dvpPinhHXgtXFtauK-34" value="" style="dashed=0;shape=line;strokeWidth=2;noLabel=1;strokeColor=#0C8CF2;opacity=50;" parent="Ii77mYU-GOD1TPvs0e9H-5" vertex="1">
                    <mxGeometry y="25" width="730" height="10" as="geometry"/>
                </mxCell>
                <mxCell id="Ht1dvpPinhHXgtXFtauK-4" value="Log in" style="dashed=0;align=center;fontSize=30;shape=rect;fillColor=#0050ef;strokeColor=#001DBC;shadow=0;hachureGap=4;pointerEvents=0;fontFamily=Helvetica;fontColor=#ffffff;" parent="1" vertex="1">
                    <mxGeometry x="410" y="250" width="835" height="110" as="geometry"/>
                </mxCell>
                <mxCell id="Ii77mYU-GOD1TPvs0e9H-4" value="" style="group" parent="1" vertex="1" connectable="0">
                    <mxGeometry x="470" y="940" width="730" height="35" as="geometry"/>
                </mxCell>
                <mxCell id="lrMdmOWfXX2h51ZglRsB-1" value="" style="group" parent="Ii77mYU-GOD1TPvs0e9H-4" vertex="1" connectable="0">
                    <mxGeometry width="730" height="35" as="geometry"/>
                </mxCell>
                <mxCell id="Ii77mYU-GOD1TPvs0e9H-2" value="&lt;font style=&quot;font-size: 30px;&quot;&gt;Contrasena&lt;/font&gt;" style="text;fontSize=16;verticalAlign=middle;strokeColor=none;fillColor=none;whiteSpace=wrap;html=1;" parent="lrMdmOWfXX2h51ZglRsB-1" vertex="1">
                    <mxGeometry width="346" height="30" as="geometry"/>
                </mxCell>
                <mxCell id="Ii77mYU-GOD1TPvs0e9H-3" value="" style="dashed=0;shape=line;strokeWidth=2;noLabel=1;strokeColor=#0C8CF2;opacity=50;" parent="lrMdmOWfXX2h51ZglRsB-1" vertex="1">
                    <mxGeometry y="25" width="730" height="10" as="geometry"/>
                </mxCell>
                <mxCell id="lrMdmOWfXX2h51ZglRsB-2" value="" style="group" parent="1" vertex="1" connectable="0">
                    <mxGeometry x="570" y="1000" width="460" height="40" as="geometry"/>
                </mxCell>
                <mxCell id="Ii77mYU-GOD1TPvs0e9H-8" value="Recuperar" style="whiteSpace=wrap;html=1;dashed=0;align=center;fontSize=24;shape=rect;fillColor=none;strokeColor=none;fontStyle=1;shadow=0;" parent="lrMdmOWfXX2h51ZglRsB-2" vertex="1">
                    <mxGeometry x="360" y="2" width="100" height="36" as="geometry"/>
                </mxCell>
                <mxCell id="Ii77mYU-GOD1TPvs0e9H-10" value="No recuerdo mi contrasena ?" style="text;html=1;align=center;verticalAlign=middle;whiteSpace=wrap;rounded=0;fontSize=24;" parent="lrMdmOWfXX2h51ZglRsB-2" vertex="1">
                    <mxGeometry width="360" height="40" as="geometry"/>
                </mxCell>
                <mxCell id="DJC1iFaOjOs81uBl9Itr-1" value="&lt;span style=&quot;font-size: 40px;&quot;&gt;Iniciar sesion&lt;/span&gt;" style="whiteSpace=wrap;html=1;dashed=0;align=center;fontSize=12;shape=rect;fillColor=#2196F3;strokeColor=none;fontStyle=1;shadow=1;fontColor=#ffffff;" parent="1" vertex="1">
                    <mxGeometry x="625" y="1090" width="400" height="60" as="geometry"/>
                </mxCell>
            </root>
        </mxGraphModel>
    </diagram>
    <diagram id="6BMutSjONHfndvuJ8fdL" name="Situaciones-Vista">
        <mxGraphModel dx="1434" dy="796" grid="1" gridSize="10" guides="1" tooltips="1" connect="1" arrows="1" fold="1" page="1" pageScale="1" pageWidth="850" pageHeight="1100" math="0" shadow="0">
            <root>
                <mxCell id="0"/>
                <mxCell id="1" parent="0"/>
                <mxCell id="bhFcbbBEqKomGxqfBr24-1" value="" style="verticalLabelPosition=bottom;verticalAlign=top;html=1;shadow=0;dashed=0;strokeWidth=1;shape=mxgraph.android.phone2;strokeColor=#006EAF;fillColor=#1ba1e2;fontColor=#ffffff;" parent="1" vertex="1">
                    <mxGeometry x="375" y="90" width="900" height="1800" as="geometry"/>
                </mxCell>
                <mxCell id="bhFcbbBEqKomGxqfBr24-2" value="" style="html=1;shadow=0;dashed=0;shape=mxgraph.bootstrap.rrect;rSize=5;fillColor=#E9ECEF;strokeColor=none;" parent="1" vertex="1">
                    <mxGeometry x="420" y="360" width="820" height="20" as="geometry"/>
                </mxCell>
                <mxCell id="bhFcbbBEqKomGxqfBr24-3" value="" style="html=1;shadow=0;dashed=0;shape=mxgraph.bootstrap.leftButton;rSize=5;fillColor=#0085FC;strokeColor=none;resizeHeight=1;" parent="bhFcbbBEqKomGxqfBr24-2" vertex="1">
                    <mxGeometry width="250" height="20" relative="1" as="geometry"/>
                </mxCell>
                <mxCell id="bhFcbbBEqKomGxqfBr24-4" value="Situaciones" style="dashed=0;align=center;fontSize=30;shape=rect;fillColor=#0050ef;strokeColor=#001DBC;shadow=0;hachureGap=4;pointerEvents=0;fontFamily=Helvetica;fontColor=#ffffff;" parent="1" vertex="1">
                    <mxGeometry x="410" y="250" width="835" height="110" as="geometry"/>
                </mxCell>
                <mxCell id="4wykgvwM53LNn97xlCrN-1" value="&lt;span style=&quot;font-size: 20px;&quot;&gt;&lt;b&gt;&amp;lt;Titulo&amp;gt;&lt;/b&gt;&lt;/span&gt;&lt;br&gt;&lt;br&gt;&amp;lt;Descripcion&amp;gt;&lt;br&gt;&lt;font style=&quot;font-size: 12px;&quot; color=&quot;#999999&quot;&gt;&amp;lt;Fecha&amp;gt;&lt;/font&gt;" style="html=1;shadow=0;dashed=0;shape=mxgraph.bootstrap.rrect;rSize=5;strokeColor=#DFDFDF;html=1;whiteSpace=wrap;fillColor=#ffffff;fontColor=#000000;verticalAlign=top;align=left;spacing=20;fontSize=14;spacingLeft=170;" parent="1" vertex="1">
                    <mxGeometry x="430" y="420" width="790" height="240" as="geometry"/>
                </mxCell>
                <mxCell id="4wykgvwM53LNn97xlCrN-2" value="Image" style="html=1;shadow=0;dashed=0;shape=mxgraph.bootstrap.leftButton;rSize=5;perimeter=none;whiteSpace=wrap;fillColor=#868E96;strokeColor=#DFDFDF;fontColor=#DEE2E6;resizeWidth=1;fontSize=18;" parent="4wykgvwM53LNn97xlCrN-1" vertex="1">
                    <mxGeometry width="178.86792452830187" height="240" relative="1" as="geometry"/>
                </mxCell>
                <mxCell id="4wykgvwM53LNn97xlCrN-11" value="&lt;span style=&quot;font-size: 20px;&quot;&gt;&lt;b&gt;&amp;lt;Titulo&amp;gt;&lt;/b&gt;&lt;/span&gt;&lt;br&gt;&lt;br&gt;&amp;lt;Descripcion&amp;gt;&lt;br&gt;&lt;font style=&quot;font-size: 12px;&quot; color=&quot;#999999&quot;&gt;&amp;lt;Fecha&amp;gt;&lt;/font&gt;" style="html=1;shadow=0;dashed=0;shape=mxgraph.bootstrap.rrect;rSize=5;strokeColor=#DFDFDF;html=1;whiteSpace=wrap;fillColor=#ffffff;fontColor=#000000;verticalAlign=top;align=left;spacing=20;fontSize=14;spacingLeft=170;" parent="1" vertex="1">
                    <mxGeometry x="430" y="700" width="790" height="240" as="geometry"/>
                </mxCell>
                <mxCell id="4wykgvwM53LNn97xlCrN-12" value="Image" style="html=1;shadow=0;dashed=0;shape=mxgraph.bootstrap.leftButton;rSize=5;perimeter=none;whiteSpace=wrap;fillColor=#868E96;strokeColor=#DFDFDF;fontColor=#DEE2E6;resizeWidth=1;fontSize=18;" parent="4wykgvwM53LNn97xlCrN-11" vertex="1">
                    <mxGeometry width="178.86792452830187" height="240" relative="1" as="geometry"/>
                </mxCell>
                <mxCell id="4wykgvwM53LNn97xlCrN-13" value="&lt;span style=&quot;font-size: 20px;&quot;&gt;&lt;b&gt;&amp;lt;Titulo&amp;gt;&lt;/b&gt;&lt;/span&gt;&lt;br&gt;&lt;br&gt;&amp;lt;Descripcion&amp;gt;&lt;br&gt;&lt;font style=&quot;font-size: 12px;&quot; color=&quot;#999999&quot;&gt;&amp;lt;Fecha&amp;gt;&lt;/font&gt;" style="html=1;shadow=0;dashed=0;shape=mxgraph.bootstrap.rrect;rSize=5;strokeColor=#DFDFDF;html=1;whiteSpace=wrap;fillColor=#ffffff;fontColor=#000000;verticalAlign=top;align=left;spacing=20;fontSize=14;spacingLeft=170;" parent="1" vertex="1">
                    <mxGeometry x="432.5" y="980" width="790" height="240" as="geometry"/>
                </mxCell>
                <mxCell id="4wykgvwM53LNn97xlCrN-14" value="Image" style="html=1;shadow=0;dashed=0;shape=mxgraph.bootstrap.leftButton;rSize=5;perimeter=none;whiteSpace=wrap;fillColor=#868E96;strokeColor=#DFDFDF;fontColor=#DEE2E6;resizeWidth=1;fontSize=18;" parent="4wykgvwM53LNn97xlCrN-13" vertex="1">
                    <mxGeometry width="178.86792452830187" height="240" relative="1" as="geometry"/>
                </mxCell>
                <mxCell id="SmrjHJmSgQ3q-kr6BUjt-2" value="&lt;font style=&quot;font-size: 24px;&quot;&gt;Ver mapa de situaciones&lt;/font&gt;" style="rounded=1;html=1;shadow=0;dashed=0;whiteSpace=wrap;fontSize=10;align=center;fillColor=none;" parent="1" vertex="1">
                    <mxGeometry x="435.5" y="1620" width="390" height="80" as="geometry"/>
                </mxCell>
                <mxCell id="SmrjHJmSgQ3q-kr6BUjt-3" value="&lt;font style=&quot;font-size: 24px;&quot;&gt;Crear nueva situacion&lt;/font&gt;" style="rounded=1;html=1;shadow=0;dashed=0;whiteSpace=wrap;fontSize=10;fillColor=#b0e3e6;align=center;strokeColor=#0e8088;" parent="1" vertex="1">
                    <mxGeometry x="840" y="1620" width="390" height="80" as="geometry"/>
                </mxCell>
            </root>
        </mxGraphModel>
    </diagram>
    <diagram id="HeCxywcQjsFcwx65niQ5" name="Situaciones-Crear">
        <mxGraphModel dx="2940" dy="1769" grid="1" gridSize="10" guides="1" tooltips="1" connect="1" arrows="1" fold="1" page="1" pageScale="1" pageWidth="850" pageHeight="1100" math="0" shadow="0">
            <root>
                <mxCell id="0"/>
                <mxCell id="1" parent="0"/>
                <mxCell id="XQUXxW_46-pXU33Cy76I-1" value="" style="verticalLabelPosition=bottom;verticalAlign=top;html=1;shadow=0;dashed=0;strokeWidth=1;shape=mxgraph.android.phone2;strokeColor=#006EAF;fillColor=#1ba1e2;fontColor=#ffffff;" parent="1" vertex="1">
                    <mxGeometry x="375" y="90" width="900" height="1800" as="geometry"/>
                </mxCell>
                <mxCell id="XQUXxW_46-pXU33Cy76I-2" value="" style="html=1;shadow=0;dashed=0;shape=mxgraph.bootstrap.rrect;rSize=5;fillColor=#E9ECEF;strokeColor=none;" parent="1" vertex="1">
                    <mxGeometry x="420" y="360" width="820" height="20" as="geometry"/>
                </mxCell>
                <mxCell id="XQUXxW_46-pXU33Cy76I-3" value="" style="html=1;shadow=0;dashed=0;shape=mxgraph.bootstrap.leftButton;rSize=5;fillColor=#0085FC;strokeColor=none;resizeHeight=1;" parent="XQUXxW_46-pXU33Cy76I-2" vertex="1">
                    <mxGeometry width="250" height="20" relative="1" as="geometry"/>
                </mxCell>
                <mxCell id="XQUXxW_46-pXU33Cy76I-4" value="Situaciones" style="dashed=0;align=center;fontSize=30;shape=rect;fillColor=#0050ef;strokeColor=#001DBC;shadow=0;hachureGap=4;pointerEvents=0;fontFamily=Helvetica;fontColor=#ffffff;" parent="1" vertex="1">
                    <mxGeometry x="410" y="250" width="835" height="110" as="geometry"/>
                </mxCell>
                <mxCell id="XQUXxW_46-pXU33Cy76I-12" value="&lt;font style=&quot;font-size: 24px;&quot;&gt;Crear nueva situacion&lt;/font&gt;" style="rounded=1;html=1;shadow=0;dashed=0;whiteSpace=wrap;fontSize=10;fillColor=#b0e3e6;align=center;strokeColor=#0e8088;" parent="1" vertex="1">
                    <mxGeometry x="470" y="1600" width="700" height="90" as="geometry"/>
                </mxCell>
                <mxCell id="XQUXxW_46-pXU33Cy76I-15" value="" style="shape=flexArrow;endArrow=classic;html=1;exitX=0.204;exitY=0.364;exitDx=0;exitDy=0;exitPerimeter=0;" parent="1" edge="1">
                    <mxGeometry width="50" height="50" relative="1" as="geometry">
                        <mxPoint x="510.34000000000015" y="304.71" as="sourcePoint"/>
                        <mxPoint x="430" y="304.67" as="targetPoint"/>
                    </mxGeometry>
                </mxCell>
                <mxCell id="4VJbJ7xtAEunyTwYRnvE-5" value="Mapa toma un marker" style="verticalLabelPosition=bottom;verticalAlign=top;html=1;shadow=0;dashed=0;strokeWidth=1;strokeColor=none;shape=rect;fillColor=#33b5e5;" vertex="1" parent="1">
                    <mxGeometry x="430" y="720" width="790" height="510" as="geometry"/>
                </mxCell>
                <mxCell id="4VJbJ7xtAEunyTwYRnvE-6" value="" style="group" vertex="1" connectable="0" parent="1">
                    <mxGeometry x="430" y="460" width="790" height="210" as="geometry"/>
                </mxCell>
                <mxCell id="OAqac5scnoMn5w3OHGgO-1" value="Titulo" style="text;fontColor=#808080;fontSize=16;verticalAlign=middle;strokeColor=none;fillColor=none;whiteSpace=wrap;html=1;" vertex="1" parent="4VJbJ7xtAEunyTwYRnvE-6">
                    <mxGeometry width="790" height="30" as="geometry"/>
                </mxCell>
                <mxCell id="OAqac5scnoMn5w3OHGgO-2" value="" style="dashed=0;shape=line;strokeWidth=1;noLabel=1;strokeColor=#3700CC;opacity=50;fillColor=#6a00ff;fontColor=#ffffff;" vertex="1" parent="4VJbJ7xtAEunyTwYRnvE-6">
                    <mxGeometry y="25" width="790" height="10" as="geometry"/>
                </mxCell>
                <mxCell id="OAqac5scnoMn5w3OHGgO-5" value="Descripcion (Text AREA)" style="text;fontColor=#808080;fontSize=16;verticalAlign=middle;strokeColor=none;fillColor=none;whiteSpace=wrap;html=1;" vertex="1" parent="4VJbJ7xtAEunyTwYRnvE-6">
                    <mxGeometry y="50" width="790" height="30" as="geometry"/>
                </mxCell>
                <mxCell id="OAqac5scnoMn5w3OHGgO-6" value="" style="dashed=0;shape=line;strokeWidth=1;noLabel=1;strokeColor=#3700CC;opacity=50;fillColor=#6a00ff;fontColor=#ffffff;" vertex="1" parent="4VJbJ7xtAEunyTwYRnvE-6">
                    <mxGeometry y="75" width="790" height="10" as="geometry"/>
                </mxCell>
                <mxCell id="OAqac5scnoMn5w3OHGgO-7" value="Titulo" style="text;fontColor=#808080;fontSize=16;verticalAlign=middle;strokeColor=none;fillColor=none;whiteSpace=wrap;html=1;" vertex="1" parent="4VJbJ7xtAEunyTwYRnvE-6">
                    <mxGeometry y="110" width="790" height="30" as="geometry"/>
                </mxCell>
                <mxCell id="OAqac5scnoMn5w3OHGgO-8" value="" style="dashed=0;shape=line;strokeWidth=1;noLabel=1;strokeColor=#3700CC;opacity=50;fillColor=#6a00ff;fontColor=#ffffff;" vertex="1" parent="4VJbJ7xtAEunyTwYRnvE-6">
                    <mxGeometry y="135" width="790" height="10" as="geometry"/>
                </mxCell>
                <mxCell id="4VJbJ7xtAEunyTwYRnvE-1" value="Choose file" style="html=1;shadow=0;dashed=0;shape=mxgraph.bootstrap.rrect;rSize=5;strokeColor=#CED4DA;html=1;whiteSpace=wrap;fillColor=#FFFFFF;fontColor=#7D868C;align=left;spacing=15;fontSize=14;" vertex="1" parent="4VJbJ7xtAEunyTwYRnvE-6">
                    <mxGeometry y="170" width="790" height="40" as="geometry"/>
                </mxCell>
                <mxCell id="4VJbJ7xtAEunyTwYRnvE-2" value="Browse" style="html=1;shadow=0;dashed=0;strokeColor=#CED4DA;gradientColor=inherit;fontColor=inherit;fillColor=#E9ECEF;rSize=5;perimeter=none;whiteSpace=wrap;resizeHeight=1;fontSize=14;align=left;spacing=15;" vertex="1" parent="4VJbJ7xtAEunyTwYRnvE-1">
                    <mxGeometry x="1" width="80" height="40" relative="1" as="geometry">
                        <mxPoint x="-160" as="offset"/>
                    </mxGeometry>
                </mxCell>
                <mxCell id="4VJbJ7xtAEunyTwYRnvE-3" value="Editar" style="html=1;shadow=0;dashed=0;shape=mxgraph.bootstrap.rightButton;strokeColor=#6C757D;gradientColor=inherit;fontColor=inherit;fillColor=#ffffff;rSize=5;perimeter=none;whiteSpace=wrap;resizeHeight=1;fontSize=14;align=left;spacing=15;" vertex="1" parent="4VJbJ7xtAEunyTwYRnvE-1">
                    <mxGeometry x="1" width="80" height="40" relative="1" as="geometry">
                        <mxPoint x="-80" as="offset"/>
                    </mxGeometry>
                </mxCell>
            </root>
        </mxGraphModel>
    </diagram>
    <diagram id="EjyRtVVKfn9nEeZOEdqz" name="Situaciones-Mapa">
        <mxGraphModel dx="3780" dy="2274" grid="1" gridSize="10" guides="1" tooltips="1" connect="1" arrows="1" fold="1" page="1" pageScale="1" pageWidth="850" pageHeight="1100" math="0" shadow="0">
            <root>
                <mxCell id="0"/>
                <mxCell id="1" parent="0"/>
                <mxCell id="MDZDwqBfExKqRim8KQag-1" value="" style="verticalLabelPosition=bottom;verticalAlign=top;html=1;shadow=0;dashed=0;strokeWidth=1;shape=mxgraph.android.phone2;strokeColor=#006EAF;fillColor=#1ba1e2;fontColor=#ffffff;" vertex="1" parent="1">
                    <mxGeometry x="375" y="90" width="900" height="1800" as="geometry"/>
                </mxCell>
                <mxCell id="MDZDwqBfExKqRim8KQag-2" value="Situaciones - Mapa" style="dashed=0;align=center;fontSize=30;shape=rect;fillColor=#0050ef;strokeColor=#001DBC;shadow=0;hachureGap=4;pointerEvents=0;fontFamily=Helvetica;fontColor=#ffffff;" vertex="1" parent="1">
                    <mxGeometry x="410" y="250" width="835" height="110" as="geometry"/>
                </mxCell>
                <mxCell id="MDZDwqBfExKqRim8KQag-3" value="MAPA&#xa;Toma Lat y Lng y muestra muchos markers" style="shape=rect;fillColor=#BDBDBD;strokeColor=#BDBDBD;shadow=1;fontSize=24;container=0;" vertex="1" parent="1">
                    <mxGeometry x="420" y="370" width="810" height="1340" as="geometry"/>
                </mxCell>
            </root>
        </mxGraphModel>
    </diagram>
</mxfile>